<svg width="196" height="20" viewBox="0 0 196 20" fill="none" xmlns="http://www.w3.org/2000/svg"><path fill-rule="evenodd" clip-rule="evenodd" d="M8.048 0H5.39L0 8.538l1.914 1.154 2.227-3.5V19.5h2.578V2.115L8.048 0zM52.19 0h-2.578v2.885H47.23v2.23h2.383v4.116l-2.383 1.384v2.5l2.383-1.384v5.538H47.23V19.5h2.149c1.562 0 2.852-1.27 2.852-2.808V10.27l2.07-1.192v-2.5l-2.07 1.192V5.154h2.07v-2.27h-2.07V0h-.04zm142.433 9.538v-2.23h-6.797V.038h-2.578v7.27h-6.798v2.23h6.798v3.039h-6.798v2.23h6.798V19.5h2.578v-4.692h6.797v-2.231h-6.797V9.538h6.797zM23.088.038c.273 0 .469.193.469.462h-.04v5.308h2.188v2.23h-2.187v5.27c0 .269-.196.461-.47.461h-5.82v.154c-.195 1.73-.898 3.115-2.07 4.154-1.172 1-2.579 1.538-3.829 1.923l-.742-2.423c.977-.308 2.031-.692 2.813-1.385.625-.577 1.015-1.307 1.172-2.23l.039-.193h-3.594v-2.23h3.672V8h-3.672V5.77h3.672v-3.5h-3.672V.037h12.071zm-5.82 11.5h3.671v-3.5h-3.672v3.5zm0-5.73h3.671V2.269h-3.672v3.539zM121.884 0h2.656l-1.328 2.115V19.5h-2.578V6.192l-2.227 3.5-1.914-1.154L121.885 0zm-8.634 10.846H97.625a.448.448 0 00-.47.462V19.5h2.58V18h11.367v1.5h2.579v-8.192c.039-.231-.196-.462-.43-.462zm-2.149 4.962H99.734v-2.731h11.368v2.73zm-7.5-15.77h3.633c.43.577 1.524 1.577 3.282 2.77 1.914 1.307 3.906 2.346 5.273 2.692l-.586 2.462c-.976-.231-2.187-.731-3.476-1.424l-.274-.153v1.769h-12.07v-1.77l-.273.154c-1.29.693-2.5 1.193-3.477 1.424L95.047 5.5c1.328-.385 3.36-1.385 5.274-2.692 1.757-1.193 2.851-2.193 3.281-2.77zm-2.852 5.539l-.547.346h10.548l-.547-.346a19.687 19.687 0 01-1.484-1c-1.368-.962-2.383-1.846-3.087-2.615l-.156-.154-.156.154c-.703.769-1.758 1.653-3.086 2.615-.469.346-.977.692-1.485 1zM176.615 0h-2.656l-5.391 8.538 1.914 1.154 2.227-3.5V19.5h2.578V2.115L176.615 0zM147.98 0h2.696l-1.328 2.115V19.5h-2.618V6.192l-2.187 3.5-1.954-1.154L147.98 0zm-15.43 0h-2.657l-5.391 8.538 1.914 1.154 3.477-5.461h1.914V19.5h2.618v-4.692h6.446v-2.231h-6.446V9.538h6.446v-2.23h-6.446V4.23h6.446V2h-9.572l1.251-2zM79.42 0h2.657l-1.29 2H92.43v2.23H79.381l-1.914 3.04H91.96c.274 0 .47.192.47.46v9.001c0 .846-.353 1.577-1.056 2.077-.86.654-2.226.961-4.102.961-2.265 0-4.492-.538-5.586-1.077l.703-2c1.094.385 3.047.923 4.962.923.898 0 1.68-.115 2.344-.346.078 0 .156-.077.156-.23V9.5H76.06l-.899 1.461-1.914-1.192L79.42 0zm8.79 12.385H74.381v2.23h13.83v-2.23zM30.59 10.73c.78-2.654.859-5.654.859-8.27v-.19h-4.805V.04h17.892v2.23h-10.51v.193c0 .846-.039 2-.078 3.153v.193h9.532c.274 0 .469.192.469.461v10.462c0 .846-.352 1.577-1.055 2.077-.86.654-2.227.961-4.102.961-2.305 0-4.492-.538-5.586-1.077l.742-1.961c1.094.384 3.047.923 4.962.923.859 0 1.68-.116 2.343-.346.157-.039.157-.193.157-.27v-9h-7.657l-.04.154a23.632 23.632 0 01-.663 3.231c-1.133 3.885-3.399 6.654-6.954 8.462l-1.133-2.27c2.89-1.461 4.688-3.653 5.625-6.884zm37.229-8.346L67.193.077h-9.845v2.23h6.133L57.348 5.77V8h2.89l-.116.27c-.899 1.845-2.344 3.23-4.337 4.23l.47.923.663 1.346c2.97-1.5 4.923-3.692 6.017-6.654L62.972 8h1.602l-.039.192a12.869 12.869 0 01-2.031 4.962A11.997 11.997 0 0158.012 17l1.133 2.27c2.188-1.078 4.102-2.693 5.47-4.693 1.328-1.923 2.226-4.116 2.538-6.423l.04-.154h1.523v9c0 .077 0 .23-.156.27-1.25.46-2.93.46-4.883.076l-.742 2.077c1.054.192 2.187.308 3.203.308 1.875 0 3.242-.308 4.102-.962.703-.5 1.055-1.23 1.055-2.077V5.808H61.88l5.938-3.423zm121.479 2.622l2.748-4.34 1.923 1.18-2.749 4.34-1.922-1.18zM181.033.643l-1.923 1.18 2.749 4.34 1.922-1.18-2.748-4.34zm-19.77 1.895c.039 3.193.156 5.808.859 8.193.938 3.192 2.735 5.384 5.548 6.884l-1.133 2.27c-3.087-1.539-5.196-3.847-6.446-6.962l-.156-.423-.157.423c-1.25 3.115-3.359 5.385-6.445 6.961l-1.133-2.269c2.89-1.461 4.687-3.653 5.625-6.884.703-2.346.859-5 .859-8.193V.154h2.579v2.384zm5.13.071l-3.745 5.905 1.922 1.181 3.745-5.904-1.922-1.182zm-14.718 1.198l1.922-1.182 3.745 5.905-1.922 1.181-3.745-5.904z" fill="#fff"/></svg>