<svg width="587" height="199" viewBox="0 0 587 199" fill="none" xmlns="http://www.w3.org/2000/svg"><g clip-path="url(#clip0_5_2438)" fill-rule="evenodd" clip-rule="evenodd"><path d="M319.837 117.694h-3.8l-7.599 12.425 2.764 1.726 3.108-5.177v19.328h3.627V120.8l1.9-3.106zm21.587 0c.345 0 .691.345.691.69h.172v8.111h3.109v3.279h-3.109v7.593c0 .345-.345.69-.691.69h-8.462v.173c-.172 2.588-1.209 4.487-2.936 6.04-1.727 1.38-3.799 2.243-5.526 2.761l-1.036-3.451.346-.129c1.289-.478 2.676-.993 3.626-1.942.863-.863 1.554-1.899 1.727-3.279v-.345h-5.181v-3.279h5.181v-5.177h-5.181v-3.279h5.181v-5.177h-5.181v-3.279h17.27zm-8.29 16.739h5.181v-5.177h-5.181v5.177zm0-8.283h5.181v-5.177h-5.181v5.177zm49.91-8.456h-3.627v4.142h-3.454v3.278h3.454v6.04l-3.454 1.899v3.624l3.454-1.899v8.111h-3.454v3.279h3.109c2.245 0 4.145-1.898 4.145-4.142v-9.318l2.936-1.726v-3.624l-2.936 1.726v-3.797h2.936v-3.279h-2.936v-4.314h-.173zm190.486 0v10.527h-9.671v3.279h9.671v4.486h-9.671v3.279h9.671v6.731h3.626v-6.731H587v-3.279h-9.844V131.5H587v-3.279h-9.844v-10.527h-3.626zm-90.667 0h3.8l-1.9 3.106v25.196h-3.799v-19.328l-3.109 5.177-2.763-1.726 7.771-12.425zm-12.434 15.704h-22.278c-.345 0-.691.345-.691.69v11.908h3.627v-2.244h16.233v2.244h3.627v-11.908c.173-.345-.173-.69-.518-.69zm-2.936 7.248H451.26v-3.969h16.233v3.969zm-10.88-22.952h5.181c.691.863 2.245 2.416 4.663 3.796 2.763 1.899 5.699 3.452 7.599 3.97l-.864 3.624c-1.381-.346-3.108-1.036-5.008-2.071l-.345-.173v2.589h-17.27v-2.416l-.346.172c-1.899 1.036-3.626 1.726-5.008 2.071l-.863-3.624c1.899-.518 4.835-2.071 7.598-3.969 2.418-1.726 3.972-3.106 4.663-3.969zm-4.145 8.111l-.69.517h14.852l-.691-.517c-.691-.345-1.382-.863-2.072-1.381-2.073-1.38-3.454-2.588-4.491-3.796l-.172-.173-.173.173c-1.036 1.208-2.59 2.416-4.49 3.796-.346.259-.691.475-1.036.69l-.001.001c-.345.215-.69.431-1.036.69zm108.8-8.111h-3.972l-7.599 12.425 2.764 1.726 3.108-5.177v19.328h3.799V120.8l1.9-3.106zm-41.102 0h3.799l-1.899 3.106v25.196h-3.627v-19.328l-3.281 5.177-2.591-1.726 7.599-12.425zm-22.105 0h-3.8l-7.771 12.425 2.763 1.726 5.008-7.939h2.763v22.09h3.8v-6.731h9.153v-3.279h-9.153V131.5h9.153v-3.279h-9.153v-4.315h9.153v-3.278h-13.643l1.727-2.934zm-75.987 0h3.799l-1.9 2.761h16.752v3.279h-18.651l-2.764 4.487h20.724c.346 0 .691.345.691.69v13.115c0 1.381-.518 2.416-1.554 3.107-1.209.863-3.282 1.38-5.872 1.38-3.281 0-6.39-.69-7.944-1.553l1.036-2.934c1.554.518 4.318 1.381 7.081 1.381 1.381 0 2.417-.173 3.454-.518 0 0 .172-.172.172-.345V131.5h-19.687l-1.382 2.07-2.763-1.725 8.808-14.151zm12.434 17.947H414.82v3.279h19.688v-3.279zm-82.377-2.243c1.036-3.969 1.209-8.284 1.209-12.08h-.173v-.173h-6.908v-3.279h25.56v3.279h-15.025v.173c0 .652-.039 1.342-.079 2.071a45.18 45.18 0 00-.094 2.588v.345h13.643c.346 0 .691.346.691.691v15.186c0 1.381-.518 2.416-1.554 3.106-1.209.863-3.281 1.381-5.872 1.381-3.281 0-6.39-.69-7.944-1.553l1.036-2.934c1.554.518 4.318 1.381 7.081 1.381 1.381 0 2.418-.173 3.454-.518.172 0 .172-.173.172-.345v-13.116h-10.88v.173c-.172 1.726-.518 3.279-.863 4.659-1.727 5.695-5.008 9.664-10.016 12.253l-1.555-3.279c4.145-2.071 6.735-5.35 8.117-10.009zm53.364-12.253l-.864-3.451h-13.988v3.279h8.807l-8.807 5.004v3.279h4.144l-.172.345c-1.382 2.589-3.282 4.66-6.217 6.213l.69 1.38 1.037 1.899c4.317-2.244 7.08-5.35 8.634-9.664v-.173h2.246v.345c-.519 2.589-1.382 5.005-2.936 7.248-1.555 2.416-3.8 4.315-6.39 5.695l1.554 3.279c3.109-1.553 5.872-3.969 7.772-6.903 1.899-2.761 3.108-6.04 3.626-9.319v-.172h2.073v13.115c0 .173 0 .345-.173.345-1.727.691-4.145.691-7.081.173l-1.036 3.106c1.554.345 3.109.518 4.49.518 2.591 0 4.663-.518 5.872-1.381 1.036-.69 1.554-1.725 1.554-3.106v-15.877h-13.47l8.635-5.177zm173.746 3.806l3.929-6.297 2.784 1.735-3.929 6.297-2.784-1.735zm-11.728-6.327l-2.785 1.734 3.927 6.298 2.785-1.734-3.927-6.298zm-28.35 2.694c0 4.659.172 8.456 1.209 11.907 1.381 4.66 3.972 7.939 7.598 10.009l-1.554 3.279c-4.317-2.243-7.426-5.695-9.153-10.181l-.173-.691-.172.691c-1.727 4.659-4.663 7.938-9.153 10.181l-1.555-3.279c4.145-2.07 6.736-5.349 8.117-10.009 1.036-3.451 1.209-7.248 1.209-11.907v-3.452h3.627v3.452zm7.37.067l-5.397 8.636 2.783 1.737 5.397-8.636-2.783-1.737zm-20.992 1.86l2.784-1.737 5.397 8.636-2.783 1.737-5.398-8.636z" fill="#1D1D1B"/><path d="M129.005 63.851h49.737V83.18h-18.478c2.245 17.43-1.9 34.687-11.917 47.458-10.361 13.288-26.077 20.536-44.037 20.536-25.214 0-51.12-16.222-51.12-43.316 0-15.876 9.154-29.164 24.351-35.55C66.143 65.75 60.617 55.568 60.617 40.9c0-23.298 19.342-40.9 44.901-40.9 15.198 0 26.423 3.279 37.476 11.045l1.727 1.208-11.571 15.531-1.554-1.035c-8.117-5.523-15.716-7.939-25.56-7.939-15.888 0-25.386 8.284-25.386 22.09 0 14.323 10.88 22.951 21.242 22.951h9.153V82.49h-8.29c-12.434 0-29.704 9.664-29.704 25.196 0 21.226 19.515 24.332 31.259 24.332 12.261 0 21.759-3.969 28.495-11.907 7.598-8.974 10.88-22.435 9.153-37.103h-12.953V63.85zM21.76 4.832H0v140.991h21.76V4.832zM218.808 24.16v51.426h34.194c8.117 0 14.507-1.553 18.997-4.487 4.49-2.933 6.735-8.11 6.735-15.359V44.35c0-7.247-2.245-12.424-6.735-15.53-4.49-3.107-10.88-4.66-18.997-4.66h-34.194zm-21.76-19.328h59.236c14.334 0 25.559 3.97 33.676 11.735 8.116 7.938 12.261 18.983 12.261 33.133 0 14.151-4.144 25.196-12.434 33.134-8.29 8.111-19.515 12.08-33.676 12.08h-37.303v50.909h-21.76V4.832z" fill="#241F21"/></g><path d="M0 197h296.119" stroke="#1D1D1B" stroke-width="3"/><defs><clipPath id="clip0_5_2438"><path fill="#fff" d="M0 0h587v151H0z"/></clipPath></defs></svg>