<svg width="355" height="56" viewBox="0 0 355 56" fill="none" xmlns="http://www.w3.org/2000/svg"><g clip-path="url(#clip0_804_404)" fill-rule="evenodd" clip-rule="evenodd" fill="#CEECFF"><path d="M12.442 4.716A28.003 28.003 0 0128.003 0a27.995 27.995 0 0127.995 27.996 28.005 28.005 0 01-47.805 19.81 28.004 28.004 0 014.25-43.09zM6.971 37.35h3.146V17.063H6.971V37.35zm23.15-9.037h2.667l-.034-2.787h-7.177v2.753h1.869a6.946 6.946 0 01-1.329 5.333 5.144 5.144 0 01-4.107 1.715c-1.69 0-4.519-.454-4.519-3.498 0-2.247 2.495-3.619 4.287-3.619h1.184v-2.692h-1.33a3.158 3.158 0 01-3.069-3.302c0-1.989 1.372-3.18 3.678-3.18a6.096 6.096 0 013.687 1.14l.223.154 1.715-2.23-.248-.17a8.702 8.702 0 00-5.402-1.587c-3.696 0-6.482 2.53-6.482 5.873a4.716 4.716 0 002.443 4.502 5.453 5.453 0 00-3.515 5.145c0 3.893 3.755 6.225 7.382 6.225a7.905 7.905 0 006.362-2.958 9.115 9.115 0 001.715-6.817zm8.454 1.715h5.436a6.732 6.732 0 004.87-1.715 7.254 7.254 0 000-9.535 6.782 6.782 0 00-4.87-1.715h-8.574v20.27h3.138v-7.305zm4.974-10.195a4.895 4.895 0 012.743.66 2.495 2.495 0 01.97 2.23v1.646a2.427 2.427 0 01-.987 2.204 4.974 4.974 0 01-2.743.643h-4.956v-7.383h4.973zm214.321-.951a.473.473 0 01.138.333v2.993h2.135v2.006h-2.135v3.001a.477.477 0 01-.472.48h-4.141v1.467h4.613v1.989h-4.613v1.492h6.748v1.99h-6.748v2.529h-2.624v-2.53h-6.362v-1.989h6.362v-1.492h-4.287v-1.99h4.287v-1.483h-4.287V25.69h4.287v-1.492h-4.287v-1.99h4.287v-1.474h-4.287v-1.99h4.287V17.03h2.624v1.715h4.141c.125 0 .245.05.334.138zm-4.475 6.824h2.624v-1.492h-2.624v1.492zm0-3.481h2.624v-1.492h-2.624v1.492zm-112.426-5.18l.635 2.385-6.036 3.532h9.594v11.276a2.566 2.566 0 01-1.072 2.143c-.874.678-2.263.995-4.167.995a18.558 18.558 0 01-3.258-.317l.755-2.144c1.632.42 3.347.39 4.964-.086.154-.034.154-.197.154-.274v-9.243h-1.543l-.043.163a15.441 15.441 0 01-2.572 6.628 14.577 14.577 0 01-5.556 4.844l-1.158-2.34a12.31 12.31 0 004.57-3.97 13.46 13.46 0 002.067-5.145v-.206h-1.621l-.043.12a12.044 12.044 0 01-6.113 6.86l-.677-1.39-.472-.951a9.436 9.436 0 004.39-4.382l.111-.283h-2.932v-2.298l6.234-3.618h-6.217v-2.298h10.006zm15.717.018h-2.701l-6.276 10.093 1.946 1.226.918-1.51h14.044v7.786c0 .155-.077.232-.154.232a7.15 7.15 0 01-2.384.36 16.055 16.055 0 01-5.041-.952l-.72 2.067a14.306 14.306 0 005.684 1.106c1.904 0 3.293-.317 4.167-.986a2.568 2.568 0 001.072-2.144V25.03a.452.452 0 00-.48-.471h-14.765l1.946-3.139h13.248v-2.306h-11.833l1.329-2.05zm6.19 12.776h-14.053v2.307h14.053v-2.307zm-35.874-12.775h-2.624v2.88h-2.418v2.264h2.418v4.287l-2.418 1.424v2.572l2.418-1.432v6.217h-2.418v2.306h2.187a2.914 2.914 0 002.898-2.898v-7.125l2.058-1.235v-2.572l-2.101 1.234v-2.7h2.101v-2.307h-2.101v-2.915zM96.76 22.997h2.221l.094 2.306h-2.22v5.437a.464.464 0 01-.48.48h-6.003v.154a6.533 6.533 0 01-2.1 4.287 10.578 10.578 0 01-3.893 1.99l-.755-2.504a7.716 7.716 0 002.856-1.423 3.927 3.927 0 001.192-2.307v-.197h-3.653v-2.307h3.73v-3.61h-3.73v-2.306h3.73v-3.61h-3.73V17.08h12.218a.463.463 0 01.48.48h.043v5.437zm-6.43 5.916h3.73v-3.61h-3.73v3.61zm0-5.916h3.73v-3.61h-3.73v3.61zm-15.777 2.83l1.947 1.225 2.263-3.61V37.18h2.615V19.2l1.347-2.144h-2.693l-5.479 8.771zm97.858 1.586h15.88a.421.421 0 01.437.471v9.295h-2.624v-1.552h-11.549v1.552h-2.624v-9.295a.467.467 0 01.48-.472zm2.144 5.916h11.549v-3.653h-11.549v3.653zm7.622-16.265h-3.695a15.2 15.2 0 01-3.335 2.863 20.9 20.9 0 01-5.359 2.779l.6 2.572c1.234-.34 2.42-.833 3.532-1.466l.275-.163v1.826h12.27v-1.826l.274.163a15.51 15.51 0 003.541 1.466l.592-2.572a19.473 19.473 0 01-5.359-2.779 16.603 16.603 0 01-3.336-2.863zm-7.142 6.079l.549-.36a19.493 19.493 0 001.509-1.03 20.914 20.914 0 003.138-2.7l.163-.163.154.163a19.393 19.393 0 003.138 2.7c.481.352.995.712 1.51 1.03l.557.36h-10.718zm-69.837-3.79H99.89v-2.29h18.521v2.29h-10.675v.197c0 .874-.043 2.066-.086 3.258v.198h9.689a.458.458 0 01.345.135.459.459 0 01.135.345v10.872a2.566 2.566 0 01-1.072 2.144c-.874.669-2.263.986-4.167.986a14.142 14.142 0 01-5.685-1.106l.721-2.067c1.618.586 3.321.907 5.041.952a7.291 7.291 0 002.384-.36c.154-.034.154-.197.154-.274v-9.287h-7.717v.155a25.605 25.605 0 01-.677 3.335 13.719 13.719 0 01-7.15 8.789l-1.158-2.34a11.008 11.008 0 005.804-7.16c.68-2.805.969-5.69.858-8.575l.043-.197zm92.704-2.298l-5.479 8.771 1.947 1.226 2.255-3.61V37.18h2.623V19.2l1.347-2.144h-2.693zm11.37 2.64a32.11 32.11 0 00.857 8.455 10.928 10.928 0 005.651 7.126l-1.158 2.34a13.18 13.18 0 01-6.55-7.185l-.155-.437-.163.437a13.324 13.324 0 01-6.55 7.186l-1.149-2.341a10.797 10.797 0 005.719-7.109c.683-2.763.971-5.61.857-8.454v-2.65h2.641v2.633zm-5.343-.047l-3.398 6.332 2.033 1.09 3.397-6.331-2.032-1.09zm6.373 6.334l3.398-6.33 2.032 1.09-3.397 6.331-2.033-1.09zm89.197-8.918h-2.633v1.063h-8.702v1.989h8.702v1.055h-6.002a.471.471 0 00-.471.48v3.738a.47.47 0 00.135.336.464.464 0 00.336.136h6.002v.857h-6.482v1.93h6.482v.857h-8.702v1.93h8.702v.857h-6.482v1.929h6.482v1.192h-2.829v2.23h2.572a2.882 2.882 0 002.873-2.873v-.6h6.087a.481.481 0 00.48-.472v-2.29h2.213V29.48h-2.17v-2.29a.482.482 0 00-.48-.47h-6.088v-.858h6.088a.468.468 0 00.444-.29.475.475 0 00.036-.182v-3.738a.48.48 0 00-.48-.48h-6.088v-1.055h8.781v-1.99h-8.806v-1.063zm-2.633 6.86h-4.793v-.858h4.793v.857zm7.503 8.282h-4.87v-.857h4.878l-.008.857zm0-3.593v.858h-4.87v-.858h4.87zm0-5.522v.858h-4.87v-.858h4.87zm-32.574-6.027h13.093v2.289h-5.556v2.29h4.767a.481.481 0 01.48.47v10.153a2.88 2.88 0 01-2.872 2.873h-1.337v-2.281h1.5v-8.935h-2.572v13.24h-2.573v-13.24h-2.623v11.233h-2.624V22.13a.473.473 0 01.472-.472h4.775V19.37h-4.93v-2.306zm-6.156 3.326h-2.624v8.42h2.624v-8.42zm-1.784 15.323c2.924-2.778 3.25-4.442 3.25-9.835v-8.814h2.615v8.814c0 5.728-.351 8.214-4.064 11.73l-1.801-1.895zm83.094-12.193v-3.747l7.313-.412-.154-2.297-9.809.548v7.949c0 5.385-.317 7.057-3.241 9.826l1.801 1.904c3.652-3.43 4.047-5.942 4.064-11.473h3.215v11.353h2.624V25.827h2.204V23.52h-8.017zm-4.364-.918v6.92a.47.47 0 01-.142.334.467.467 0 01-.338.129h-6.037c-.343 2.898-1.312 4.853-3.884 7.305l-1.715-1.903c2.924-2.77 3.25-4.442 3.25-9.826v-7.529l8.506-.96.257 2.29-6.259.702v2.067h5.89a.468.468 0 01.336.135.46.46 0 01.136.336zm-6.388 5.094h4.09l-.026-3.267h-4.064v3.267zm-107.779-7.203v-3.429h-2.624v3.43c0 6.782-3.798 12.913-8.985 14.576l.814 2.486c4.244-1.38 7.717-5.144 9.483-9.929 1.784 4.76 5.239 8.575 9.483 9.93l.815-2.487c-5.187-1.655-8.952-7.786-8.986-14.577zm14.928.377l-5.839 5.985 1.646 1.604 1.183-1.21v9.913h2.624V24.557l2.032-2.083-1.646-1.604zm-1.569-3.815h3.207l-5.831 5.976-1.646-1.595 4.27-4.381zm86.557 3.3v-2.229h-10.623l1.054-1.071h-3.241l-4.673 4.724 1.646 1.604 1.621-1.647a21.268 21.268 0 003.43 2.298 31.441 31.441 0 01-6.791.926l.06 2.435a28.925 28.925 0 009.852-1.946 29.145 29.145 0 009.268 1.715v-2.47a31.73 31.73 0 01-6.147-.78 21.43 21.43 0 004.544-3.558zm-12.527 0h9.432a18.468 18.468 0 01-4.596 2.642 18.621 18.621 0 01-4.836-2.641zm5.479 8.37h6.954a.46.46 0 01.443.281.47.47 0 01.037.182v5.144a2.566 2.566 0 01-1.072 2.144c-.874.669-2.263.986-4.167.986a16.339 16.339 0 01-3.755-.446l.72-2.17a13.72 13.72 0 003.112.395 7.116 7.116 0 002.384-.36.217.217 0 00.12-.087.216.216 0 00.034-.144v-3.61h-5.522c-2.358 5.153-7.373 6.062-9.637 6.456l-.6.112-.515-2.572.652-.13c2.049-.36 5.222-.925 7.134-3.875h-6.534v-2.306h7.588v-1.15h2.624v1.15z"/></g><defs><clipPath id="clip0_804_404"><path fill="#fff" d="M0 0h355v56H0z"/></clipPath></defs></svg>