<svg width="275" height="20" viewBox="0 0 275 20" fill="none" xmlns="http://www.w3.org/2000/svg"><path fill-rule="evenodd" clip-rule="evenodd" d="M179.778 1.797a.454.454 0 01.136.324v2.902h2.094v1.946h-2.094v2.91a.465.465 0 01-.463.466h-4.061v1.422h4.524v1.93h-4.524v1.446h6.618v1.93h-6.618v2.453h-2.573v-2.453h-6.24v-1.93h6.24v-1.447h-4.205v-1.929h4.205V10.33h-4.205V8.4h4.205V6.952h-4.205v-1.93h4.205v-1.43h-4.205V1.664h4.205V0h2.573v1.663h4.061c.123 0 .241.048.327.134zm-4.388 6.619h2.573V6.969h-2.573v1.447zm0-3.377h2.573V3.593h-2.573v1.446zM65.134.017l.623 2.312-5.92 3.426h9.41V16.69a2.47 2.47 0 01-.267 1.168 2.503 2.503 0 01-.785.911c-.858.657-2.22.965-4.086.965a18.385 18.385 0 01-3.196-.308l.74-2.079c1.6.408 3.283.379 4.869-.083.151-.033.151-.191.151-.266V8.033H65.16l-.042.158a14.873 14.873 0 01-2.523 6.429 14.248 14.248 0 01-5.449 4.698l-1.135-2.27a12.036 12.036 0 004.482-3.85 12.975 12.975 0 002.026-4.99v-.2H60.93l-.042.117a11.729 11.729 0 01-5.995 6.653l-.665-1.348-.462-.923a9.2 9.2 0 004.305-4.25l.11-.274h-2.877V5.755l6.114-3.51H55.32V.017h9.813zm15.414.016h-2.65l-6.154 9.788 1.908 1.19.9-1.464h13.774v7.55c0 .15-.076.225-.152.225a7.086 7.086 0 01-2.337.35 15.906 15.906 0 01-4.945-.924l-.706 2.005a14.171 14.171 0 005.575 1.072c1.867 0 3.229-.307 4.087-.956a2.48 2.48 0 001.051-2.079V7.76a.436.436 0 00-.289-.43.45.45 0 00-.182-.027h-14.48l1.909-3.044h12.991V2.02H79.244L80.548.033zm6.07 12.383H72.836v2.237h13.782v-2.237zM51.437.033h-2.573v2.795h-2.372v2.195h2.372V9.18l-2.372 1.38v2.495l2.372-1.389v6.03h-2.372v2.236h2.145a2.875 2.875 0 002.004-.828 2.811 2.811 0 00.838-1.982v-6.91l2.018-1.198V6.52l-2.06 1.197v-2.62h2.06V2.862h-2.06V.033zM21.779 5.788h2.178l.092 2.237h-2.178v5.272a.444.444 0 01-.288.435.459.459 0 01-.183.031h-5.886v.15a6.31 6.31 0 01-2.06 4.158A10.42 10.42 0 019.637 20l-.74-2.43a7.6 7.6 0 002.8-1.38 3.795 3.795 0 001.169-2.237v-.19H9.283v-2.238h3.658v-3.5H9.283V5.787h3.658v-3.5H9.283V.05h11.983a.459.459 0 01.44.285.427.427 0 01.03.18h.043v5.273zm-6.307 5.738h3.658v-3.5h-3.658v3.5zm0-5.738h3.658V2.287h-3.658v3.501zM0 8.532l1.909 1.19 2.22-3.502v13.323h2.564V2.104L8.022.025H5.373L0 8.532zm95.969 1.539h15.573a.415.415 0 01.412.282.4.4 0 01.016.175v9.015h-2.573v-1.506H98.071v1.506h-2.573v-9.015a.447.447 0 01.29-.427.458.458 0 01.18-.03zm2.102 5.738h11.326v-3.543H98.071v3.543zM105.547.033h-3.625a14.831 14.831 0 01-3.27 2.778 20.557 20.557 0 01-5.256 2.694L93.984 8c1.21-.33 2.374-.808 3.465-1.422l.269-.158v1.771h12.033V6.42l.269.158A15.298 15.298 0 00113.493 8l.58-2.495a19.16 19.16 0 01-5.255-2.694 16.232 16.232 0 01-3.271-2.778zM98.542 5.93l.538-.349a18.938 18.938 0 001.48-.998 20.482 20.482 0 003.078-2.62l.16-.157.151.158c.928.98 1.96 1.857 3.078 2.62.47.34.975.69 1.479.997l.547.35h-10.51zM30.053 2.254h-5.205V.034h18.163v2.22H32.542v.191c0 .848-.042 2.004-.084 3.16v.191h9.502a.459.459 0 01.44.285c.023.058.033.12.03.181v10.545c.01.405-.082.805-.265 1.168a2.501 2.501 0 01-.785.91c-.858.65-2.22.957-4.087.957a14.002 14.002 0 01-5.575-1.073l.706-2.004c1.588.568 3.257.88 4.945.923a7.22 7.22 0 002.337-.35c.152-.032.152-.19.152-.265V8.067H32.29v.15a24.71 24.71 0 01-.665 3.234 13.25 13.25 0 01-2.575 5.012 13.428 13.428 0 01-4.438 3.512l-1.135-2.27a10.777 10.777 0 003.617-2.855 10.633 10.633 0 002.076-4.089c.667-2.72.95-5.519.841-8.316l.042-.191zM120.969.025l-5.373 8.507 1.908 1.19 2.22-3.502v13.323h2.565V2.104l1.329-2.079h-2.649zm11.149 2.561a30.837 30.837 0 00.841 8.2 10.53 10.53 0 002.009 4.053 10.674 10.674 0 003.533 2.857l-1.135 2.27a12.834 12.834 0 01-6.425-6.968l-.151-.424-.16.424a12.977 12.977 0 01-6.424 6.969l-1.127-2.27a10.568 10.568 0 003.577-2.833 10.434 10.434 0 002.032-4.061c.67-2.68.953-5.441.841-8.2V.033h2.589v2.553zm-5.231-.046l-3.332 6.14 1.993 1.058 3.332-6.14-1.993-1.058zm6.242 6.144l3.332-6.14 1.993 1.057-3.332 6.14-1.993-1.057zm87.474-8.65h-2.581v1.03h-8.535v1.93h8.535v1.023h-5.886a.463.463 0 00-.463.465v3.626a.444.444 0 00.284.425.463.463 0 00.179.033h5.886v.831h-6.357v1.871h6.357v.832h-8.535v1.871h8.535v.832h-6.357v1.87h6.357v1.157h-2.775v2.162h2.523a2.842 2.842 0 001.989-.819 2.776 2.776 0 00.827-1.967v-.582h5.971a.467.467 0 00.471-.457v-2.221h2.169v-1.871h-2.127v-2.22a.467.467 0 00-.471-.458h-5.97v-.831h5.97a.466.466 0 00.435-.28.467.467 0 00.036-.178V4.482a.465.465 0 00-.471-.465h-5.97V2.994h8.61v-1.93h-8.636V.035zm-2.581 6.652h-4.701v-.831h4.701v.831zm7.357 8.033h-4.776v-.831h4.785l-.009.831zm0-3.484v.832h-4.776v-.832h4.776zm0-5.356v.832h-4.776V5.88h4.776zM193.435.033h12.84v2.22h-5.449v2.221h4.675a.472.472 0 01.471.457v9.847a2.777 2.777 0 01-.827 1.967 2.842 2.842 0 01-1.99.819h-1.311V15.35h1.471V6.686h-2.523v12.84h-2.522V6.686h-2.573V17.58h-2.573V4.948c0-.121.048-.238.135-.323a.465.465 0 01.327-.134h4.684V2.27h-4.835V.032zm-6.029 3.227h-2.573v8.166h2.573V3.26zm-1.758 14.86c2.867-2.694 3.187-4.307 3.187-9.538V.033h2.564v8.55c0 5.554-.344 7.966-3.985 11.376l-1.766-1.838zm81.49-11.825V2.661l7.172-.399-.151-2.229-9.62.533v7.708c0 5.223-.311 6.845-3.178 9.53l1.766 1.847c3.582-3.327 3.969-5.763 3.985-11.127h3.154v11.01h2.573V8.532H275V6.295h-7.862zm-4.28-.89v6.712a.45.45 0 01-.471.45h-5.92c-.336 2.81-1.287 4.705-3.809 7.084l-1.682-1.846c2.868-2.686 3.187-4.308 3.187-9.53V.973l8.342-.931.252 2.22-6.139.682v2.004h5.777a.463.463 0 01.33.132.454.454 0 01.133.325zm-6.265 4.94h4.011l-.025-3.168h-3.986v3.168zM150.895 3.36V.033h-2.573V3.36c0 6.578-3.725 12.524-8.812 14.137l.799 2.412c4.162-1.34 7.567-4.99 9.3-9.63 1.749 4.615 5.137 8.316 9.3 9.63l.799-2.412c-5.088-1.605-8.779-7.551-8.813-14.137zm14.648.366l-5.727 5.804 1.606 1.555 1.161-1.172v9.613h2.573V7.3l1.993-2.02-1.606-1.555zM163.996.025h3.145l-5.718 5.796-1.606-1.555 4.179-4.241zm84.886 3.202V1.064h-10.418l1.034-1.039h-3.179l-4.582 4.582 1.614 1.555 1.589-1.596a20.883 20.883 0 003.364 2.228 31.09 31.09 0 01-6.66.898l.059 2.362a28.644 28.644 0 009.662-1.888 28.866 28.866 0 009.09 1.664V7.435a31.43 31.43 0 01-6.029-.757 20.977 20.977 0 004.456-3.451zm-12.285 0h9.25a18.153 18.153 0 01-4.508 2.561 18.337 18.337 0 01-4.742-2.561zm5.374 8.116h6.819a.459.459 0 01.435.273.443.443 0 01.036.176v4.99a2.498 2.498 0 01-1.051 2.079c-.858.648-2.22.956-4.087.956a16.198 16.198 0 01-3.683-.433l.706-2.103c1 .242 2.024.37 3.053.382a7.061 7.061 0 002.338-.35.21.21 0 00.151-.224v-3.5h-5.415c-2.313 4.997-7.232 5.879-9.452 6.261l-.588.108-.505-2.494.639-.125c2.01-.35 5.121-.898 6.996-3.759h-6.407v-2.237h7.441v-1.114h2.574v1.114z" fill="#fff"/></svg>