<svg width="645" height="201" viewBox="0 0 645 201" fill="none" xmlns="http://www.w3.org/2000/svg"><g clip-path="url(#clip0_802_3623)"><path fill-rule="evenodd" clip-rule="evenodd" d="M529.734 124.157a.546.546 0 01.163.388v3.482h2.512v2.336h-2.512v3.492a.556.556 0 01-.162.392.572.572 0 01-.393.167h-4.874v1.707h5.429v2.315h-5.429v1.736h7.941v2.315h-7.941v2.944h-3.088v-2.944h-7.487v-2.315h7.487v-1.736h-5.045v-2.315h5.045v-1.727h-5.045v-2.315h5.045v-1.736h-5.045v-2.316h5.045v-1.716h-5.045v-2.315h5.045V122h3.088v1.996h4.874c.147 0 .288.058.392.161zm-5.266 7.942h3.088v-1.736h-3.088v1.736zm0-4.052h3.088v-1.736h-3.088v1.736zm-132.307-6.027l.747 2.774-7.104 4.112h11.291v13.122c.011.486-.099.967-.319 1.402-.219.434-.543.81-.942 1.093-1.029.788-2.664 1.158-4.904 1.158a22.005 22.005 0 01-3.834-.37l.888-2.494c1.92.488 3.939.454 5.842-.1.182-.04.182-.23.182-.32V131.64h-1.817l-.05.19a17.843 17.843 0 01-3.027 7.713 17.102 17.102 0 01-6.539 5.639l-1.362-2.725a14.44 14.44 0 005.378-4.62 15.566 15.566 0 002.432-5.988v-.239h-1.907l-.051.14a14.076 14.076 0 01-7.194 7.983l-.797-1.617-.555-1.107a11.038 11.038 0 005.166-5.1l.131-.329h-3.451v-2.674l7.336-4.212h-7.316v-2.674h11.776zm18.496.02h-3.179l-7.386 11.745 2.291 1.428 1.079-1.757h16.529v9.061c0 .18-.091.27-.182.27a8.527 8.527 0 01-2.805.419 19.112 19.112 0 01-5.933-1.108l-.848 2.405a16.985 16.985 0 006.69 1.287c2.24 0 3.875-.369 4.904-1.147.399-.284.723-.659.942-1.093.22-.435.33-.916.319-1.402v-10.837a.525.525 0 00-.346-.516.543.543 0 00-.219-.033h-17.376l2.291-3.653h15.59v-2.684h-13.925l1.564-2.385zm7.286 14.859h-16.539v2.684h16.539v-2.684zm-42.22-14.859h-3.087v3.353h-2.846v2.635h2.846v4.989l-2.846 1.657v2.993l2.846-1.666v7.235h-2.846v2.684h2.573a3.448 3.448 0 002.406-.994 3.373 3.373 0 001.004-2.379v-8.292l2.422-1.438v-2.993l-2.472 1.437v-3.144h2.472v-2.684h-2.472v-3.393zm-35.589 6.906h2.614l.111 2.684h-2.614v6.327a.52.52 0 01-.159.401.534.534 0 01-.406.158h-7.063v.179a7.573 7.573 0 01-2.472 4.99 12.521 12.521 0 01-4.581 2.315l-.888-2.914a9.137 9.137 0 003.36-1.656 4.56 4.56 0 001.403-2.685v-.229h-4.299v-2.685h4.389v-4.201h-4.389v-2.684h4.389v-4.202h-4.389v-2.684h14.379a.543.543 0 01.565.559h.05v6.327zm-7.567 6.885h4.389v-4.201h-4.389v4.201zm0-6.885h4.389v-4.202h-4.389v4.202zM314 132.239l2.29 1.427 2.664-4.202v15.987h3.077v-20.926l1.594-2.495h-3.178L314 132.239zm115.163 1.846h18.688a.5.5 0 01.386.156.482.482 0 01.128.393v10.817h-3.088v-1.806h-13.591v1.806h-3.088v-10.817a.522.522 0 01.163-.395.536.536 0 01.402-.154zm2.523 6.885h13.591v-4.251h-13.591v4.251zm8.97-18.93h-4.349a17.804 17.804 0 01-3.925 3.333 24.691 24.691 0 01-6.307 3.233l.706 2.994a18.279 18.279 0 004.158-1.706l.322-.19v2.126h14.44v-2.126l.323.19a18.346 18.346 0 004.167 1.706l.697-2.994a23.005 23.005 0 01-6.307-3.233 19.478 19.478 0 01-3.925-3.333zm-8.406 7.075l.646-.419a22.742 22.742 0 001.776-1.197 24.59 24.59 0 003.693-3.144l.192-.189.182.189a22.6 22.6 0 003.693 3.144c.565.409 1.17.828 1.776 1.197l.655.419H432.25zm-82.186-4.411h-6.247v-2.664h21.796v2.664H353.05v.23c0 1.018-.05 2.404-.101 3.791v.231h11.403a.546.546 0 01.528.341c.027.069.04.143.037.217v12.654a2.97 2.97 0 01-.319 1.402c-.22.434-.543.809-.943 1.093-1.029.778-2.663 1.147-4.904 1.147a16.806 16.806 0 01-6.69-1.287l.848-2.405a19.112 19.112 0 005.933 1.108c.952.015 1.9-.127 2.805-.419.182-.04.182-.23.182-.32V131.68h-9.081v.18a29.551 29.551 0 01-.798 3.881 15.885 15.885 0 01-3.09 6.014 16.116 16.116 0 01-5.325 4.215l-1.362-2.724a12.932 12.932 0 004.34-3.426 12.754 12.754 0 002.491-4.907c.8-3.264 1.14-6.623 1.009-9.979l.051-.23zm109.098-2.674l-6.448 10.209 2.291 1.427 2.663-4.202v15.987h3.078v-20.926l1.594-2.495h-3.178zm13.38 3.074a36.954 36.954 0 001.009 9.839 12.661 12.661 0 002.41 4.864 12.821 12.821 0 004.24 3.429l-1.362 2.724a15.401 15.401 0 01-7.709-8.362l-.182-.509-.192.509a15.574 15.574 0 01-7.709 8.362l-1.352-2.724c1.664-.81 3.13-1.97 4.292-3.399a12.503 12.503 0 002.438-4.874 34.73 34.73 0 001.009-9.839v-3.084h3.108v3.064zm-6.278-.056l-3.999 7.369 2.392 1.269 3.998-7.369-2.391-1.269zm7.491 7.372l3.998-7.368 2.391 1.269-3.998 7.369-2.391-1.27zm104.97-10.38h-3.098v1.237h-10.242v2.316h10.242v1.227h-7.064a.564.564 0 00-.396.164.552.552 0 00-.158.395v4.351a.527.527 0 00.159.391.551.551 0 00.395.158h7.064v.998h-7.629v2.245h7.629v.998h-10.242v2.245h10.242v.998h-7.629v2.245h7.629v1.387h-3.33v2.595h3.027a3.41 3.41 0 002.387-.982 3.328 3.328 0 00.993-2.361v-.699h7.165a.558.558 0 00.565-.548v-2.665h2.603v-2.245h-2.553v-2.665a.566.566 0 00-.565-.548h-7.164v-.998h7.164a.57.57 0 00.399-.158.536.536 0 00.166-.391v-4.351a.554.554 0 00-.165-.395.569.569 0 00-.4-.164h-7.164v-1.227h10.333v-2.316h-10.363v-1.237zm-3.098 7.983h-5.641v-.998h5.641v.998zm8.829 9.64h-5.731v-.998h5.741l-.01.998zm0-4.181v.998h-5.731v-.998h5.731zm0-6.427v.998h-5.731v-.998h5.731zm-38.334-7.015h15.408v2.664h-6.538v2.665h5.61c.148 0 .29.057.396.16a.556.556 0 01.169.389v11.815a3.336 3.336 0 01-.993 2.361 3.413 3.413 0 01-2.387.982h-1.574v-2.654h1.765v-10.399h-3.027v15.408h-3.027v-15.408h-3.088v13.073h-3.087v-15.158c0-.146.058-.285.162-.388a.56.56 0 01.393-.161h5.62v-2.665h-5.802v-2.684zm-7.235 3.872H535.8v9.799h3.087v-9.799zm-2.109 17.833c3.441-3.234 3.824-5.17 3.824-11.446V122.04h3.077v10.259c0 6.666-.413 9.56-4.782 13.651l-2.119-2.205zm97.787-14.191v-4.361l8.608-.479-.182-2.674-11.544.639v9.25c0 6.267-.373 8.213-3.814 11.436l2.119 2.216c4.299-3.992 4.763-6.916 4.783-13.352h3.784v13.212h3.088v-13.202H644v-2.685h-9.435zm-5.135-1.068v8.054a.532.532 0 01-.167.388.557.557 0 01-.398.151h-7.104c-.404 3.373-1.544 5.648-4.571 8.502l-2.018-2.216c3.441-3.223 3.824-5.169 3.824-11.436v-8.761l10.01-1.118.303 2.664-7.366.819v2.405h6.932a.542.542 0 01.555.548zm-7.518 5.928h4.814l-.031-3.802h-4.783v3.802zm-126.838-8.382v-3.992h-3.087v3.992c0 7.893-4.47 15.028-10.575 16.964l.958 2.894c4.995-1.606 9.082-5.987 11.161-11.556 2.098 5.539 6.165 9.98 11.16 11.556l.958-2.894c-6.104-1.926-10.534-9.061-10.575-16.964zm17.577.439l-6.871 6.965 1.927 1.866 1.393-1.407v11.536h3.087v-14.669l2.391-2.425-1.927-1.866zm-1.856-4.441h3.773l-6.861 6.955-1.927-1.866 5.015-5.089zm101.864 3.842v-2.595h-12.502l1.241-1.247h-3.814l-5.5 5.498 1.938 1.867 1.907-1.916a25.078 25.078 0 004.036 2.674 37.387 37.387 0 01-7.992 1.078l.071 2.834a34.374 34.374 0 0011.594-2.265 34.63 34.63 0 0010.908 1.995v-2.874a37.651 37.651 0 01-7.235-.908 25.165 25.165 0 005.348-4.141zm-14.742 0h11.099a21.804 21.804 0 01-5.408 3.074 21.985 21.985 0 01-5.691-3.074zm6.448 9.74h8.183a.54.54 0 01.522.328.523.523 0 01.043.21v5.988c.011.486-.099.967-.319 1.402a3.006 3.006 0 01-.942 1.093c-1.029.778-2.664 1.147-4.904 1.147a19.39 19.39 0 01-4.419-.519l.847-2.524c1.199.29 2.428.444 3.663.459a8.474 8.474 0 002.805-.419.25.25 0 00.182-.27v-4.201h-6.499c-2.774 5.997-8.677 7.055-11.341 7.514l-.707.13-.605-2.994.767-.149c2.411-.42 6.145-1.078 8.395-4.511h-7.689v-2.684h8.93v-1.338h3.088v1.338z" fill="#000"/></g><path fill-rule="evenodd" clip-rule="evenodd" d="M128.911 63.779h49.7v19.306h-18.465c2.244 17.409-1.898 34.647-11.907 47.402C137.885 143.76 122.181 151 104.233 151c-25.195 0-51.081-16.203-51.081-43.266 0-15.858 9.146-29.131 24.333-35.51-11.39-6.55-16.913-16.72-16.913-31.371C60.572 17.583 79.901 0 105.441 0c15.186 0 26.404 3.275 37.448 11.032l1.726 1.207-11.562 15.513-1.554-1.034c-8.11-5.516-15.704-7.93-25.54-7.93-15.877 0-25.368 8.275-25.368 22.065 0 14.307 10.872 22.925 21.226 22.925h9.146v18.617h-8.283c-12.425 0-29.682 9.653-29.682 25.167 0 21.202 19.5 24.304 31.235 24.304 12.253 0 21.744-3.964 28.474-11.893 7.594-8.964 10.872-22.41 9.147-37.06h-12.943V63.778zM21.744 4.825H0v140.83h21.744V4.826zm196.904 19.306V75.5h34.169c8.111 0 14.496-1.551 18.983-4.482 4.487-2.93 6.73-8.101 6.73-15.341V44.3c0-7.24-2.243-12.41-6.73-15.513-4.487-3.103-10.872-4.655-18.983-4.655h-34.169zM196.904 4.826h59.192c14.323 0 25.541 3.965 33.651 11.722C297.858 24.478 302 35.509 302 49.644c0 14.135-4.142 25.167-12.425 33.096-8.284 8.101-19.501 12.066-33.652 12.066h-37.275v50.85h-21.744V4.826z" fill="#000"/><path d="M0 199h296.119" stroke="#1D1D1B" stroke-width="3"/><defs><clipPath id="clip0_802_3623"><path fill="#fff" transform="translate(314 122)" d="M0 0h330v24H0z"/></clipPath></defs></svg>