<svg width="308" height="64" viewBox="0 0 308 64" fill="none" xmlns="http://www.w3.org/2000/svg"><g clip-path="url(#clip0_15_556)"><path fill-rule="evenodd" clip-rule="evenodd" d="M31.429 0C14.104 0 0 14.396 0 32.078 0 49.76 14.104 64.156 31.429 64.156c17.324 0 31.428-14.396 31.428-32.078C62.857 14.396 48.6 0 31.43 0zM11.345 42.719H7.819v-23.16h3.526v23.16zM36.64 32.39h-2.913c.307 2.817-.306 5.633-1.993 7.824-1.686 2.19-4.14 3.443-7.052 3.443-3.986 0-8.279-2.66-8.279-7.042 0-2.66 1.533-4.85 3.986-5.79-1.84-1.095-2.76-2.816-2.76-5.163 0-3.756 3.067-6.729 7.206-6.729 2.453 0 4.293.47 5.98 1.878l.306.156-1.84 2.504-.153-.313c-1.38-.939-2.606-1.252-4.14-1.252-2.606 0-4.139 1.408-4.139 3.6 0 2.346 1.687 3.755 3.373 3.755h1.533v3.13h-1.38c-1.993 0-4.752 1.564-4.752 4.068 0 3.442 3.22 4.068 5.059 4.068 1.993 0 3.526-.626 4.6-2.034 1.226-1.408 1.839-3.756 1.532-6.103H28.67v-3.13h7.972v3.13zm20.084-5.477c0 2.348-.614 4.069-1.993 5.477-1.38 1.252-3.22 2.034-5.52 2.034h-5.979v8.294h-3.526v-23.16h9.659c2.3 0 4.14.627 5.519 1.879 1.227 1.252 1.84 3.13 1.84 5.476zm26.982 2.66l2.147 1.409 2.606-4.225v15.96h2.913V21.908l1.533-2.504H89.84l-6.133 10.171zm27.136-3.286h2.3v2.504h-2.453v6.26c0 .312-.307.625-.613.625h-6.746v.157c-.153 2.034-.92 3.755-2.3 5.007-1.38 1.252-3.066 1.878-4.446 2.347l-.766-2.817c1.073-.313 2.3-.782 3.22-1.564.766-.626 1.226-1.565 1.379-2.66v-.313h-4.14v-2.66h4.293v-4.226h-4.292v-2.66h4.292v-4.225h-4.292v-2.66h13.951c.307 0 .613.313.613.626v6.26zm-7.359 6.885h4.293v-4.225h-4.293v4.225zm0-6.885h4.293v-4.225h-4.293v4.225zm40.321-6.885h-2.913v3.443h-2.76v2.66h2.76v4.85l-2.76 1.566v2.973l2.76-1.565v6.572h-2.76v2.66h2.453c1.84 0 3.22-1.565 3.22-3.286V31.61l2.453-1.409v-2.973l-2.453 1.409v-3.13h2.453v-2.66h-2.453v-3.443zM308 30.826V28.01h-7.819v-8.607h-3.066v8.607h-7.819v2.816h7.819v3.6h-7.819v2.66h7.819v5.633h3.066v-5.634H308v-2.66h-7.819v-3.599H308zm-90.146-1.252l6.285-10.17h3.067l-1.533 2.503v20.812h-3.067V26.758l-2.453 4.225-2.299-1.409zm-3.68 2.817h-17.937c-.307 0-.613.313-.613.626v9.702h2.913v-1.721h13.184v1.72h2.913v-9.857c0-.313-.153-.47-.46-.47zm-2.453 5.79h-13.184v-3.286h13.184v3.286zm-8.585-18.778h4.139c.46.626 1.687 1.878 3.527 3.286 2.299 1.565 4.599 2.66 6.132 3.13l-.613 2.973c-1.073-.313-2.453-.939-3.986-1.721l-.307-.157v2.191h-13.951v-2.19l-.307.156c-1.533.782-2.913 1.408-3.986 1.721l-.613-2.973c1.533-.313 3.986-1.565 6.132-3.13 2.147-1.408 3.373-2.66 3.833-3.286zm-3.373 6.572l-.613.47h11.958l-.613-.47c-.307-.234-.575-.43-.843-.625a41.9 41.9 0 01-.844-.627c-1.533-1.095-2.759-2.19-3.526-3.129l-.153-.157-.153.157c-.767.939-1.993 2.034-3.526 3.13a6.833 6.833 0 01-1.687 1.251zm78.188 3.6l2.147 1.408 2.606-4.225v15.96h2.913v-20.81l1.533-2.504h-3.066l-6.133 10.171zm-27.749 1.408l-2.146-1.409 6.132-10.17h3.066l-1.533 2.503v20.812h-2.913V26.758l-2.606 4.225zm-13.798-11.58h-3.066l-6.133 10.171 2.147 1.409 3.986-6.572h2.299v18.308h2.913v-5.634h7.359v-2.66h-7.359v-3.599h7.359V28.01h-7.359v-3.6h7.359v-2.66h-10.885l1.38-2.347zm-61.17 0h3.066l-1.533 2.504h13.491v2.66h-15.024l-2.147 3.6h16.711c.307 0 .613.312.613.625v10.641c0 1.095-.46 1.877-1.226 2.503-1.073.783-2.607 1.096-4.753 1.096-2.606 0-5.212-.626-6.439-1.252l.767-2.347c1.226.469 3.526 1.095 5.672 1.095 1.073 0 1.993-.157 2.76-.47 0 0 .153-.156.153-.313v-8.919h-15.944l-1.073 1.721-2.147-1.408 7.053-11.736zm10.118 14.866h-15.944v2.66h15.944v-2.66zm-65.463-12.206h-5.52v-2.66h20.544v2.66h-11.958v.157c0 .513-.034 1.06-.07 1.643-.04.66-.084 1.364-.084 2.112v.157h11.039c.306 0 .613.313.613.626v12.518c0 1.095-.46 1.878-1.226 2.504-1.074.782-2.607 1.095-4.753 1.095-2.606 0-5.213-.626-6.439-1.252l.766-2.347c1.227.47 3.527 1.095 5.673 1.095 1.073 0 1.993-.156 2.759-.469.154 0 .154-.157.154-.313V28.948h-8.739v.157c-.153 1.408-.46 2.66-.766 3.912-1.227 4.538-3.833 7.824-7.973 10.015l-1.379-2.66c3.372-1.878 5.365-4.382 6.439-8.294.766-3.13.92-6.729.92-9.858v-.157zm42.006.157l-.766-2.817h-11.345v2.66h7.052l-7.052 4.225v2.66h3.373l-.154.313c-1.073 2.191-2.606 3.912-5.059 5.008l.46 1.095.767 1.565c3.373-1.721 5.672-4.382 6.899-7.98v-.157h1.839v.313c-.306 2.034-1.226 4.225-2.299 5.946-1.38 1.878-3.066 3.6-5.213 4.538l1.227 2.66c2.453-1.252 4.752-3.286 6.285-5.633 1.534-2.347 2.607-5.007 2.913-7.668v-.156h1.687v10.641c0 .156 0 .313-.154.313-1.379.469-3.372.625-5.672.156l-.767 2.504c1.227.313 2.453.313 3.68.313 2.146 0 3.679-.313 4.752-1.096.767-.626 1.227-1.408 1.227-2.503V26.132H154.69l7.205-3.912zm139.868 3.028l3.162-5.18 2.212 1.408-3.162 5.18-2.212-1.408zm-9.533-5.128l-2.211 1.407 3.163 5.179 2.211-1.407-3.163-5.18zm-22.711 2.257c0 3.912.153 7.041.92 9.858 1.073 3.755 3.219 6.416 6.592 8.293l-1.379 2.66c-3.527-1.877-5.98-4.537-7.359-8.293l-.154-.47-.153.47c-1.38 3.756-3.833 6.416-7.359 8.293l-1.38-2.66c3.373-1.877 5.366-4.381 6.439-8.293.767-2.817.92-5.946.92-9.858V19.56h2.913v2.817zm1.533 7.198l2.3 1.408 4.293-7.042-2.3-1.408-4.293 7.042zm-12.719-5.668l2.21-1.409 4.305 7.034-2.21 1.41-4.305-7.035zm-215.1 7.232v-8.45h5.52c1.38 0 2.3.313 3.066.783.766.47 1.073 1.252 1.073 2.503v1.878c0 1.095-.307 2.034-1.073 2.504-.767.47-1.687.782-3.066.782h-5.52z" fill="#CEECFF"/></g><defs><clipPath id="clip0_15_556"><path fill="#fff" d="M0 0h308v64H0z"/></clipPath></defs></svg>