<svg version="1.0" xmlns="http://www.w3.org/2000/svg" width="933.333" height="933.333" viewBox="0 0 700 700"><path d="M327.8.5c-.1.1-4.2.5-8.9.9s-9.5.8-10.6 1c-1.1.3-4.4.7-7.4 1.1-32.3 4.1-74 17.1-106.2 33.2-21.3 10.6-46.8 26.9-63.2 40.4-29.3 24.2-52.4 49.3-73.2 79.9-9.6 14.2-22.8 38.7-30.8 57.5C20.1 232 10.2 263 7.7 277c-.3 1.4-1 5.4-1.7 9-.6 3.6-1.3 7.6-1.6 9-.3 1.4-.7 4.5-1 7-.3 2.5-.7 5.6-.9 7-2.6 14.9-2.6 68-.1 81.7.2 1 .7 4.5 1 7.8.4 3.3.9 6.7 1.1 7.5.3.8.7 3.1.9 5 1.4 10.7 11.1 47.5 14.6 55.5.5 1.1 3 7.4 5.6 14C36.3 508 52.9 536.8 72.9 563c6.3 8.2 7.4 9.6 15.6 18.9 10.5 12.2 34.2 34.3 48.5 45.4 33.4 25.9 75.6 47.2 117.1 59.1 12.6 3.7 36.9 8.9 46.9 10.2 3 .4 6.6.8 8 1 14.8 2 54.7 2.6 71.5 1.1 23-2.1 44.3-6.1 65.1-12.3 6.6-1.9 12.6-3.6 13.4-3.8.8-.3 5.2-1.8 9.7-3.5 61.5-22.8 110.2-57.8 154.8-111.2 4.6-5.5 21.7-29.8 23.5-33.4.3-.6 3.1-5.4 6.4-10.9 24.1-40.5 40.8-93.4 45.4-143.6 2-22.1 0-73.4-3.3-85-.2-.8-.7-3.5-1-6-3.9-28-17.3-67.4-33.4-98.5-27.6-53.2-64.9-95.2-116.2-130.8-5.3-3.7-9.9-6.7-10.2-6.7-.3 0-2.5-1.3-4.9-2.9-6.7-4.5-30.1-16.5-42.8-21.9-23.4-10-54.4-19.4-74.7-22.6-3.3-.5-11.6-1.9-12.3-2.1-.3-.1-4.1-.5-8.5-1-4.4-.4-8.9-1-10-1.2C379 .9 328.3 0 327.8.5zm-30.8 206c18.2 1.5 34.5 8.1 45.6 18.3 1.7 1.6 4.1 2.8 5.3 2.7 2.5-.2 3.3-1.4-10.3 14.8-11.2 13.5-11.5 13.6-19.3 6.7-5.2-4.5-14.6-9.2-22.3-11.1-7.8-1.9-26.9-1.6-35 .6-13.5 3.5-22.7 11.2-26.7 22.4-1.8 4.8-2.1 7.8-1.9 16.3.2 9.3.5 11 3.4 17 4 8.2 11 14.8 19 17.8 6.7 2.5 9.3 2.9 23.5 2.9l10.7.1v35h-9.2c-6.4 0-11.2.6-15.3 1.9-9.5 3.1-13.5 4.7-14.7 5.9-.7.7-1.6 1.2-2.1 1.2-1.6 0-12.3 7.9-16.9 12.5-7.4 7.5-10.9 15.1-11.5 24.9-.9 13.6 2.9 24.2 11.4 32.5 3.9 3.7 15.9 9.7 21.3 10.6 11.4 2 14.5 2.3 24.5 2 13.3-.4 15.8-.8 25.6-4.6 14.9-5.7 25-14.1 32.4-26.8 8.7-14.7 12.5-29.3 12-45.2-.2-5-.6-9.4-1-9.7-.4-.4-6.4-.7-13.3-.7h-12.7v-35l43.8-.1 43.7-.1v17.4c0 13.1-.3 17.3-1.2 17.4-.7.1-7.6.2-15.3.3l-14 .1.3 3.5c.8 13.7.1 27.9-2 35.5-.5 2.2-1.1 4.7-1.3 5.5-.8 3.9-4.9 14.9-7.7 20.4-7.7 15.3-20.7 29.7-33.8 37.4-7.1 4.2-22.1 10.8-26.4 11.6-1.2.2-3.9.9-6.1 1.4-12.4 3.3-32 3.4-45.6.3-32.6-7.4-59-29.5-66.8-55.8-2.8-9.3-3.1-11.5-3.2-20.8 0-9.6 1.2-15.9 4.5-24.8 5.7-15.1 17.6-28.5 33.4-37.4l5.3-3-6-2.2c-16.9-6.2-25.1-23.3-23.8-50 1.8-38 30.2-65.6 71.7-69.8 3-.3 5.6-.6 5.7-.7.4-.3 15.1.2 22.3.9zM127 341.2V468h-3.7c-19 .2-34.4.1-35-.3-.6-.4-1-253-.4-253.3h19.6l19.5.1v126.7zm436.5-125.7c29 5.3 47.4 18.1 57.4 39.7 5.9 12.6 8.2 23 8.7 38.8.5 16.7-1.8 29.4-7.5 41.6-5 10.6-12.3 21.7-16.1 24.4-9 6.4-31.5 14.2-45 15.6-3.6.4-23 .7-43.1.7l-36.7.1v45.4c0 24.9-.2 45.6-.5 45.8-.4.4-28.5.8-36.4.5l-2.3-.1V214.4l58.8.2c32.3 0 60.5.5 62.7.9z"/><path d="M482.1 249.9c-.5.4-.9 19.2-.9 45.8V341l2.1.1h33.4c37.1 0 45-1 58.8-7.8 12.8-6.4 15.3-13 15-39.9-.2-18.1-.9-22.3-5.4-28.6-3.7-5.3-16.7-11.8-28.6-14.4-3.8-.8-73.1-1.3-74.4-.5z"/></svg>