<svg version="1.0" xmlns="http://www.w3.org/2000/svg" width="933.333" height="933.333" viewBox="0 0 700 700"><path d="M327.8.5c-.1.1-4.1.6-8.8.9-4.7.4-9.4.9-10.5 1.1-1.1.2-4.2.7-7 1-2.7.3-7.2 1-10 1.5-2.7.5-6.1 1.2-7.5 1.4-8.3 1.4-19.9 4.2-30 7.1-13.1 3.8-37 12.2-38.5 13.6-.5.5-1.4.9-2.1.9-2.1 0-26.3 12-38.9 19.3-10.3 6-26.5 16.5-31.5 20.4-.8.6-5.1 4-9.5 7.4-53.1 41.3-94.5 100.4-116 165.4-3.2 10-7.9 26.6-9 32.6-.3 1.3-1.2 5.8-2 9.9-.8 4.1-1.7 8.9-1.9 10.5-.3 1.7-.7 4.5-1.1 6.4-.3 1.8-.8 5.4-1 8-.3 2.5-.7 5.9-1 7.6-1 5.1-1.3 54.6-.5 62.5 2.7 24.5 2.9 26.2 5.1 37.3C30.6 540.1 117.9 640.6 237 681.2c18.9 6.4 47.8 13.4 63.5 15.3 2.8.4 6.1.8 7.5 1.1 15.5 2.6 67.9 2.5 84.2-.1 1.3-.2 4.6-.7 7.3-1 7.1-1 8.7-1.3 11.5-1.8 1.4-.3 4.3-.8 6.5-1.2 2.2-.4 8.5-1.8 14-3.2 5.5-1.3 10.7-2.6 11.5-2.8 4.9-1.1 29.1-9.4 38.4-13.2 49.6-20.1 94.9-52 129.6-91.2 3.6-4.1 7-7.9 7.7-8.6.7-.7 5.5-6.9 10.7-13.9 25.5-33.9 44.7-72.2 56.6-113.1 1.8-6.1 3.4-11.7 3.5-12.5 8-36.1 9.9-52.5 10-84 0-18.3-1.1-41.5-2-43-.2-.3-.6-3.2-1-6.4-.3-3.3-.8-6.2-.9-6.5-.2-.3-.7-2.9-1-5.6-1.1-7.9-4.3-22.1-7.7-33.5-1.7-5.8-3.4-11.9-3.8-13.5-.5-1.7-2.5-7.5-4.6-13-16.2-43.3-37.2-78.1-68.5-113.9-6-6.8-24.2-24.5-32-31-4.7-3.9-8.7-7.4-9-7.7-1.3-1.6-23.1-17.1-29.9-21.4-22.4-13.9-41.5-23.7-62.6-31.8-8.4-3.3-30.2-10.5-33.5-11.2-.8-.2-4.2-1-7.5-1.9-7.1-1.8-19.6-4.5-24.5-5.2-1.9-.3-6-.9-9.1-1.5-3.1-.5-8.1-1.2-11-1.5-3-.3-6.7-.8-8.4-1-3.4-.6-54.2-1.4-54.7-.9zm-23.4 206c14.2 3 31.5 10.5 40.5 17.5l3.2 2.5-8 10.3c-9.4 12.3-10.9 14.3-12 16.1-.7 1-2 .6-6.2-2.1-9.1-5.7-15.9-8.6-26.1-11.2-7.7-1.9-29.4-1.5-36.3.8-12.1 3.9-21.6 12.6-25.2 23.1-.9 2.7-1.8 8.7-1.9 13.3-.4 13.7 3.4 23.2 13.1 32 7.8 7.2 14.3 9.4 29.3 10l12.2.4v33.3l-11.2.2c-21.3.4-38.2 8.1-48.9 22.3-6.4 8.5-8.3 14.6-8 25 .7 22.6 14.8 36.2 41.8 40.6 6.2 1 22.4 1.1 27.3.2 2.5-.5 5.5-1 6.6-1.2 4.3-.8 14.1-5.3 19.6-9 14.1-9.3 25-27.7 28.8-48.5 1.1-5.9 1.4-20.7.6-24.6-.3-1.1-.5-2.5-.5-3.1-.1-.6-3.9-1-10.8-.9-6 .1-11.2-.2-11.8-.6-.8-.6-1.3-28.1-.6-33.2.1-.9 89.1-.9 89.2 0 .1.5.3 8.3.5 17.5l.3 16.8h-16.4c-12 0-16.4.3-16.7 1.2-.3.7-.1 3 .3 5.2.8 4.3.4 22.1-.5 27.6-8.2 46.7-38.3 78.5-81.7 86.5-12.9 2.3-33.4 1.5-46.3-1.9-24.4-6.5-44.6-20.5-55.3-38.4-16-26.7-12.3-61.2 8.7-83.3 5.3-5.6 13.7-11.7 19.1-14 2.7-1.2 4.9-2.5 4.9-2.9 0-.4-1.9-2-4.1-3.5-8.5-5.6-17.3-16.4-20.7-25.5-7.4-19.6-5.6-44.5 4.4-61.9 12.1-21 32.9-34.2 59.9-38 8.4-1.2 30.4-.4 38.9 1.4zm-178.2 7.8c.2.7.4 57.7.4 126.7l-.1 125.5-19.8.3-19.7.2V213.2h19.4c14 0 19.6.3 19.8 1.1zm442.8.2c11.6 2.1 28.1 8.8 32.8 13.2.7.7 1.7 1.3 2.1 1.3 2 0 12.2 11.6 16.4 18.6 4.8 8.1 10.2 21.8 11.2 28.4.3 2 .8 4.7 1.1 6 .7 3.4.6 20.5-.1 25.5-2.3 15.1-9.4 31.2-18.9 43.1-9 11.2-29.7 21.7-47.1 24-3.3.4-23.5.8-45 .8l-39 .1-.2 42.5c-.1 23.4-.2 43.9-.2 45.6l-.1 3.1h-39V213.2h59.3c45.1 0 61 .3 66.7 1.3z"/><path d="M482.3 294c0 33.1.3 46 1.1 46 .6.1 16.9.1 36.2.1 27.8 0 36.4-.3 41.6-1.5 14.1-3.3 22.2-8.8 26.9-18.3 2.3-4.6 2.4-5.7 2.4-25.8 0-19.9-.1-21.3-2.4-26.2-2.8-6.3-9-12.3-15.7-15.3-10-4.4-15.7-5-54-5h-36.2l.1 46z"/></svg>