<svg width="308" height="64" viewBox="0 0 308 64" fill="none" xmlns="http://www.w3.org/2000/svg">
<g clip-path="url(#clip0_15_556)">
<path fill-rule="evenodd" clip-rule="evenodd" d="M31.4286 0C14.1045 0 0 14.3961 0 32.0782C0 49.7604 14.1045 64.1565 31.4286 64.1565C48.7526 64.1565 62.8571 49.7604 62.8571 32.0782C62.8571 14.3961 48.5993 0 31.4286 0ZM11.3449 42.7188H7.81881V19.5599H11.3449V42.7188ZM36.6411 32.3912H33.7282C34.0348 35.2078 33.4216 38.0244 31.7352 40.2152C30.0488 42.4059 27.5958 43.6577 24.6829 43.6577C20.6969 43.6577 16.4042 40.9976 16.4042 36.6161C16.4042 33.956 17.9373 31.7653 20.3902 30.8264C18.5505 29.7311 17.6307 28.0098 17.6307 25.6626C17.6307 21.9071 20.6969 18.934 24.8362 18.934C27.2892 18.934 29.1289 19.4034 30.8153 20.8117L31.1219 20.9682L29.2822 23.4719L29.1289 23.1589C27.7491 22.22 26.5226 21.9071 24.9895 21.9071C22.3833 21.9071 20.8502 23.3154 20.8502 25.5061C20.8502 27.8533 22.5366 29.2616 24.223 29.2616H25.7561V32.3912H24.3763C22.3833 32.3912 19.6237 33.956 19.6237 36.4597C19.6237 39.9022 22.8432 40.5281 24.6829 40.5281C26.676 40.5281 28.2091 39.9022 29.2822 38.4939C30.5087 37.0856 31.122 34.7384 30.8153 32.3912H28.669V29.2616H36.6411V32.3912ZM56.7247 26.9144C56.7247 29.2616 56.1115 30.9829 54.7317 32.3912C53.3519 33.643 51.5122 34.4254 49.2125 34.4254H43.2334V42.7188H39.7073V19.5599H49.3659C51.6655 19.5599 53.5052 20.1858 54.885 21.4377C56.1115 22.6895 56.7247 24.5672 56.7247 26.9144ZM83.7074 29.5744L85.8538 30.9827L88.46 26.7578V42.7186H91.3729V21.9069L92.906 19.4032H89.8398L83.7074 29.5744ZM110.843 26.2883H113.143V28.792H110.69V35.0512C110.69 35.3641 110.383 35.6771 110.077 35.6771H103.331V35.8336C103.178 37.8678 102.411 39.5891 101.031 40.8409C99.6516 42.0927 97.9652 42.7186 96.5854 43.1881L95.8189 40.3715C96.8921 40.0585 98.1185 39.5891 99.0384 38.8067C99.8049 38.1807 100.265 37.2419 100.418 36.1465V35.8336H96.2788V33.1734H100.571V28.9485H96.2788V26.2883H100.571V22.0634H96.2788V19.4032H110.23C110.537 19.4032 110.843 19.7162 110.843 20.0292V26.2883ZM103.484 33.1734H107.777V28.9485H103.484V33.1734ZM103.484 26.2883H107.777V22.0634H103.484V26.2883ZM143.805 19.4032H140.892V22.8458H138.132V25.5059H140.892V30.3568L138.132 31.9216V34.8947L140.892 33.3299V39.902H138.132V42.5622H140.585C142.425 42.5622 143.805 40.9974 143.805 39.2761V31.6086L146.258 30.2003V27.2272L143.805 28.6355V25.5059H146.258V22.8458H143.805V19.4032ZM308 30.8262V28.0096H300.181V19.4032H297.115V28.0096H289.296V30.8262H297.115V34.4252H289.296V37.0854H297.115V42.7186H300.181V37.0854H308V34.4252H300.181V30.8262H308ZM217.854 29.5744L224.139 19.4032H227.206L225.673 21.9069V42.7186H222.606V26.7578L220.153 30.9827L217.854 29.5744ZM214.174 32.3912H196.237C195.93 32.3912 195.624 32.7042 195.624 33.0171V42.7188H198.537V40.9976H211.721V42.7188H214.634V32.8607C214.634 32.5477 214.481 32.3912 214.174 32.3912ZM211.721 38.181H198.537V34.8949H211.721V38.181ZM203.136 19.4032H207.275C207.735 20.0292 208.962 21.281 210.802 22.6893C213.101 24.2541 215.401 25.3495 216.934 25.8189L216.321 28.792C215.248 28.479 213.868 27.8531 212.335 27.0707L212.028 26.9142V29.105H198.077V26.9142L197.77 27.0707C196.237 27.8531 194.857 28.479 193.784 28.792L193.171 25.8189C194.704 25.5059 197.157 24.2541 199.303 22.6893C201.45 21.281 202.676 20.0292 203.136 19.4032ZM199.763 25.9754L199.15 26.4448H211.108L210.495 25.9754C210.188 25.7407 209.92 25.5451 209.652 25.3496L209.652 25.3495L209.652 25.3494C209.383 25.1538 209.115 24.9582 208.808 24.7235C207.275 23.6282 206.049 22.5328 205.282 21.594L205.129 21.4375L204.976 21.594C204.209 22.5328 202.983 23.6282 201.45 24.7235C200.99 25.193 200.376 25.6624 199.763 25.9754ZM277.951 29.5744L280.098 30.9827L282.704 26.7578V42.7186H285.617V21.9069L287.15 19.4032H284.084L277.951 29.5744ZM250.202 30.9827L248.056 29.5744L254.188 19.4032H257.254L255.721 21.9069V42.7186H252.808V26.7578L250.202 30.9827ZM236.404 19.4032H233.338L227.205 29.5744L229.352 30.9827L233.338 24.4106H235.637V42.7186H238.55V37.0854H245.909V34.4252H238.55V30.8262H245.909V28.0096H238.55V24.4106H245.909V21.7504H235.024L236.404 19.4032ZM175.234 19.4032H178.3L176.767 21.9069H190.258V24.5671H175.234L173.087 28.1661H189.798C190.105 28.1661 190.411 28.479 190.411 28.792V28.9485V39.4326C190.411 40.5279 189.951 41.3103 189.185 41.9362C188.112 42.7186 186.578 43.0316 184.432 43.0316C181.826 43.0316 179.22 42.4057 177.993 41.7798L178.76 39.4326C179.986 39.902 182.286 40.5279 184.432 40.5279C185.505 40.5279 186.425 40.3715 187.192 40.0585C187.192 40.0585 187.345 39.902 187.345 39.7455V39.5891V38.9631V36.616V30.9827V30.8262H171.401L170.328 32.5475L168.181 31.1392L175.234 19.4032ZM185.352 34.2692H169.408V36.9294H185.352V34.2692ZM119.889 22.0634H114.369V19.4032H134.913V22.0634H122.955V22.2199C122.955 22.7332 122.921 23.2809 122.885 23.8629C122.845 24.5229 122.801 25.227 122.801 25.9754V26.1319H133.84C134.146 26.1319 134.453 26.4448 134.453 26.7578V39.2761C134.453 40.3715 133.993 41.1539 133.227 41.7798C132.153 42.5622 130.62 42.8751 128.474 42.8751C125.868 42.8751 123.261 42.2492 122.035 41.6233L122.801 39.2761C124.028 39.7455 126.328 40.3715 128.474 40.3715C129.547 40.3715 130.467 40.215 131.233 39.902C131.387 39.902 131.387 39.7455 131.387 39.5891V39.2761V38.3372V35.2076V29.105V28.9485H122.648V29.105C122.495 30.5132 122.188 31.765 121.882 33.0168L121.882 33.0169C120.655 37.5548 118.049 40.8409 113.909 43.0316L112.53 40.3715C115.902 38.4937 117.895 35.99 118.969 32.0781C119.735 28.9485 119.889 25.3495 119.889 22.2199V22.0634ZM161.895 22.2199L161.129 19.4032H149.784V22.0634H156.836L149.784 26.2883V28.9485H153.157L153.003 29.2614C151.93 31.4521 150.397 33.1734 147.944 34.2688L148.404 35.3641L149.171 36.9289C152.544 35.2076 154.843 32.5475 156.07 28.9485V28.792H157.909V29.105C157.603 31.1392 156.683 33.3299 155.61 35.0512C154.23 36.9289 152.544 38.6502 150.397 39.5891L151.624 42.2492C154.077 40.9974 156.376 38.9631 157.909 36.616C159.443 34.2688 160.516 31.6086 160.822 28.9485V28.792H162.509V28.9485V35.0512V38.1807V39.1196V39.4326C162.509 39.5891 162.509 39.7455 162.355 39.7455C160.976 40.215 158.983 40.3715 156.683 39.902L155.916 42.4057C157.143 42.7186 158.369 42.7186 159.596 42.7186C161.742 42.7186 163.275 42.4057 164.348 41.6233C165.115 40.9974 165.575 40.215 165.575 39.1196V26.1319H154.69L161.895 22.2199ZM301.763 25.2482L304.925 20.0688L307.137 21.4758L303.975 26.6551L301.763 25.2482ZM292.23 20.1198L290.019 21.527L293.182 26.7058L295.393 25.2986L292.23 20.1198ZM269.519 22.3767C269.519 26.2887 269.672 29.4183 270.439 32.2349C271.512 35.9904 273.658 38.6506 277.031 40.5283L275.652 43.1885C272.125 41.3107 269.672 38.6506 268.293 34.8951L268.139 34.4256L267.986 34.8951C266.606 38.6506 264.153 41.3107 260.627 43.1885L259.247 40.5283C262.62 38.6506 264.613 36.1469 265.686 32.2349C266.453 29.4183 266.606 26.2887 266.606 22.3767V20.9684V20.499V19.5601H269.519V20.499V20.9684V22.3767ZM271.052 29.5746L273.352 30.9829L277.645 23.9414L275.345 22.5331L271.052 29.5746ZM258.333 23.9075L260.543 22.4981L264.848 29.5317L262.638 30.9411L258.333 23.9075ZM43.2335 31.1392V22.6893H48.7526C50.1324 22.6893 51.0523 23.0023 51.8188 23.4717C52.5854 23.9411 52.892 24.7235 52.892 25.9754V27.8531C52.892 28.9485 52.5854 29.8873 51.8188 30.3568C51.0523 30.8262 50.1324 31.1392 48.7526 31.1392H43.2335Z" fill="#CEECFF"/>
</g>
<defs>
<clipPath id="clip0_15_556">
<rect width="308" height="64" fill="white"/>
</clipPath>
</defs>
</svg>
