<svg width="645" height="201" viewBox="0 0 645 201" fill="none" xmlns="http://www.w3.org/2000/svg">
<g clip-path="url(#clip0_802_3623)">
<path fill-rule="evenodd" clip-rule="evenodd" d="M529.734 124.157C529.838 124.26 529.897 124.399 529.897 124.545V128.027H532.409V130.363H529.897V133.855C529.897 134.002 529.839 134.142 529.735 134.247C529.631 134.351 529.49 134.411 529.342 134.414H524.468V136.121H529.897V138.436H524.468V140.172H532.409V142.487H524.468V145.431H521.38V142.487H513.893V140.172H521.38V138.436H516.335V136.121H521.38V134.394H516.335V132.079H521.38V130.343H516.335V128.027H521.38V126.311H516.335V123.996H521.38V122H524.468V123.996H529.342C529.489 123.996 529.63 124.054 529.734 124.157ZM524.468 132.099H527.556V130.363H524.468V132.099ZM524.468 128.047H527.556V126.311H524.468V128.047ZM392.161 122.02L392.908 124.794L385.804 128.906H397.095V142.028C397.106 142.514 396.996 142.995 396.776 143.43C396.557 143.864 396.233 144.24 395.834 144.523C394.805 145.311 393.17 145.681 390.93 145.681C389.643 145.67 388.36 145.546 387.096 145.311L387.984 142.817C389.904 143.305 391.923 143.271 393.826 142.717C394.008 142.677 394.008 142.487 394.008 142.397V131.64H392.191L392.141 131.83C391.753 134.599 390.716 137.24 389.114 139.543C387.459 141.946 385.207 143.887 382.575 145.182L381.213 142.457C383.366 141.384 385.215 139.796 386.591 137.837C387.813 136.03 388.641 133.991 389.023 131.849V131.61H387.116L387.065 131.75C385.828 135.246 383.241 138.116 379.871 139.733L379.074 138.116L378.519 137.009C380.773 135.934 382.593 134.137 383.685 131.909L383.816 131.58H380.365V128.906L387.701 124.694H380.385V122.02H392.161ZM410.657 122.04H407.478L400.092 133.785L402.383 135.213L403.462 133.456H419.991V142.517C419.991 142.697 419.9 142.787 419.809 142.787C418.905 143.082 417.956 143.224 417.004 143.206C414.979 143.153 412.976 142.779 411.071 142.098L410.223 144.503C412.341 145.379 414.618 145.817 416.913 145.79C419.153 145.79 420.788 145.421 421.817 144.643C422.216 144.359 422.54 143.984 422.759 143.55C422.979 143.115 423.089 142.634 423.078 142.148V131.311C423.081 131.237 423.069 131.163 423.041 131.095C423.014 131.026 422.972 130.964 422.919 130.912C422.866 130.861 422.802 130.821 422.732 130.795C422.662 130.769 422.588 130.758 422.513 130.762H405.137L407.428 127.109H423.018V124.425H409.093L410.657 122.04ZM417.943 136.899H401.404V139.583H417.943V136.899ZM375.723 122.04H372.636V125.393H369.79V128.028H372.636V133.017L369.79 134.674V137.667L372.636 136.001V143.236H369.79V145.92H372.363C373.266 145.915 374.13 145.558 374.769 144.926C375.407 144.295 375.768 143.44 375.773 142.547V134.255L378.195 132.817V129.824L375.723 131.261V128.117H378.195V125.433H375.723V122.04ZM340.134 128.946H342.748L342.859 131.63H340.245V137.957C340.248 138.031 340.236 138.105 340.208 138.174C340.181 138.243 340.139 138.306 340.086 138.358C340.033 138.411 339.97 138.452 339.9 138.479C339.83 138.506 339.755 138.518 339.68 138.516H332.617V138.695C332.459 140.607 331.576 142.39 330.145 143.685C328.797 144.763 327.237 145.552 325.564 146L324.676 143.086C325.9 142.771 327.045 142.207 328.036 141.43C328.798 140.718 329.292 139.771 329.439 138.745V138.516H325.14V135.831H329.529V131.63H325.14V128.946H329.529V124.744H325.14V122.06H339.519C339.594 122.057 339.669 122.07 339.738 122.097C339.808 122.124 339.872 122.165 339.925 122.217C339.978 122.27 340.019 122.333 340.047 122.402C340.074 122.471 340.087 122.545 340.084 122.619H340.134V128.946ZM332.567 135.831H336.956V131.63H332.567V135.831ZM332.567 128.946H336.956V124.744H332.567V128.946ZM314 132.239L316.29 133.666L318.954 129.464V145.451H322.031V124.525L323.625 122.03H320.447L314 132.239ZM429.163 134.085H447.851C447.923 134.081 447.995 134.094 448.061 134.12C448.128 134.147 448.188 134.188 448.237 134.241C448.286 134.293 448.323 134.355 448.345 134.423C448.367 134.491 448.374 134.563 448.365 134.634V145.451H445.277V143.645H431.686V145.451H428.598V134.634C428.596 134.56 428.61 134.488 428.638 134.42C428.666 134.352 428.708 134.29 428.761 134.239C428.814 134.187 428.877 134.147 428.946 134.121C429.015 134.094 429.089 134.082 429.163 134.085ZM431.686 140.97H445.277V136.719H431.686V140.97ZM440.656 122.04H436.307C435.169 123.334 433.847 124.456 432.382 125.373C430.449 126.747 428.324 127.836 426.075 128.606L426.781 131.6C428.233 131.204 429.63 130.631 430.939 129.894L431.261 129.704V131.83H445.701V129.704L446.024 129.894C447.336 130.631 448.736 131.204 450.191 131.6L450.888 128.606C448.628 127.859 446.5 126.768 444.581 125.373C443.129 124.439 441.809 123.318 440.656 122.04ZM432.25 129.115L432.896 128.696C433.512 128.327 434.117 127.908 434.672 127.499C436.005 126.574 437.242 125.521 438.365 124.355L438.557 124.166L438.739 124.355C439.852 125.531 441.09 126.585 442.432 127.499C442.997 127.908 443.602 128.327 444.208 128.696L444.863 129.115H432.25ZM350.064 124.704H343.817V122.04H365.613V124.704H353.05V124.934C353.05 125.952 353 127.338 352.949 128.725L352.949 128.725V128.725V128.726V128.726V128.726L352.949 128.726V128.956H364.352C364.427 128.953 364.501 128.965 364.571 128.992C364.641 129.02 364.705 129.061 364.758 129.113C364.811 129.165 364.852 129.228 364.88 129.297C364.907 129.366 364.92 129.44 364.917 129.514V142.168C364.927 142.654 364.818 143.135 364.598 143.57C364.378 144.004 364.055 144.379 363.655 144.663C362.626 145.441 360.992 145.81 358.751 145.81C356.456 145.842 354.178 145.404 352.061 144.523L352.909 142.118C354.814 142.799 356.817 143.173 358.842 143.226C359.794 143.241 360.742 143.099 361.647 142.807C361.829 142.767 361.829 142.577 361.829 142.487V131.68H352.748V131.86C352.569 133.169 352.303 134.466 351.95 135.741C351.365 137.941 350.312 139.991 348.86 141.755C347.409 143.519 345.593 144.956 343.535 145.97L342.173 143.246C343.853 142.428 345.333 141.259 346.513 139.82C347.692 138.382 348.542 136.708 349.004 134.913C349.804 131.649 350.144 128.29 350.013 124.934L350.064 124.704ZM459.162 122.03L452.714 132.239L455.005 133.666L457.668 129.464V145.451H460.746V124.525L462.34 122.03H459.162ZM472.542 125.104C472.436 128.413 472.775 131.722 473.551 134.943C473.992 136.717 474.814 138.376 475.961 139.807C477.109 141.238 478.555 142.408 480.201 143.236L478.839 145.96C475.285 144.246 472.528 141.255 471.13 137.598L470.948 137.089L470.756 137.598C469.343 141.246 466.59 144.232 463.047 145.96L461.695 143.236C463.359 142.426 464.825 141.266 465.987 139.837C467.15 138.408 467.982 136.744 468.425 134.963C469.229 131.747 469.569 128.434 469.434 125.124V122.04H472.542V125.104ZM466.264 125.048L462.265 132.417L464.657 133.686L468.655 126.317L466.264 125.048ZM473.755 132.42L477.753 125.052L480.144 126.321L476.146 133.69L473.755 132.42ZM578.725 122.04H575.627V123.277H565.385V125.593H575.627V126.82H568.563C568.49 126.82 568.417 126.835 568.349 126.863C568.281 126.891 568.219 126.932 568.167 126.984C568.116 127.036 568.075 127.098 568.048 127.166C568.021 127.233 568.007 127.306 568.009 127.379V131.73C568.007 131.802 568.021 131.874 568.048 131.941C568.075 132.009 568.116 132.07 568.168 132.121C568.22 132.172 568.282 132.212 568.35 132.24C568.417 132.267 568.49 132.28 568.563 132.279H575.627V133.277H567.998V135.522H575.627V136.52H565.385V138.765H575.627V139.763H567.998V142.008H575.627V143.395H572.297V145.99H575.324C576.22 145.987 577.078 145.634 577.711 145.008C578.345 144.382 578.702 143.533 578.704 142.647V141.948H585.869C586.017 141.948 586.159 141.891 586.265 141.788C586.37 141.686 586.431 141.546 586.434 141.4V138.735H589.037V136.49H586.484V133.825C586.482 133.679 586.421 133.539 586.315 133.437C586.21 133.334 586.067 133.277 585.919 133.277H578.755V132.279H585.919C585.993 132.28 586.066 132.267 586.135 132.24C586.203 132.213 586.266 132.173 586.318 132.121C586.371 132.07 586.413 132.009 586.441 131.942C586.47 131.875 586.484 131.803 586.484 131.73V127.379C586.484 127.231 586.425 127.088 586.319 126.984C586.213 126.879 586.069 126.82 585.919 126.82H578.755V125.593H589.088V123.277H578.725V122.04ZM575.627 130.023H569.986V129.025H575.627V130.023ZM584.456 139.663H578.725V138.665H584.466L584.456 139.663ZM584.456 135.482V136.48H578.725V135.482H584.456ZM584.456 129.055V130.053H578.725V129.055H584.456ZM546.122 122.04H551.894H551.914H561.53V124.704H554.992V127.369H560.602C560.75 127.369 560.892 127.426 560.998 127.529C561.104 127.632 561.164 127.771 561.167 127.918V139.733C561.164 140.619 560.807 141.468 560.174 142.094C559.541 142.72 558.682 143.073 557.787 143.076H556.213V140.422H557.978V130.023H554.951V145.431H551.924V130.023H548.836V143.096H545.749V127.938C545.749 127.792 545.807 127.653 545.911 127.55C546.015 127.447 546.157 127.389 546.304 127.389H551.924V124.724H546.122V122.04ZM538.887 125.912H535.8V135.711H538.887V125.912ZM536.778 143.745C540.219 140.511 540.602 138.575 540.602 132.299V122.04H543.679V132.299C543.679 138.965 543.266 141.859 538.897 145.95L536.778 143.745ZM634.565 129.554V125.193L643.173 124.714L642.991 122.04L631.447 122.679V131.929C631.447 138.196 631.074 140.142 627.633 143.365L629.752 145.581C634.051 141.589 634.515 138.665 634.535 132.229H638.319V145.441H641.407V132.239H644V129.554H634.565ZM629.43 128.486V136.54C629.43 136.612 629.415 136.684 629.386 136.751C629.358 136.817 629.316 136.878 629.263 136.928C629.21 136.978 629.148 137.018 629.079 137.043C629.011 137.069 628.938 137.081 628.865 137.079H621.761C621.357 140.452 620.217 142.727 617.19 145.581L615.172 143.365C618.613 140.142 618.996 138.196 618.996 131.929V123.168L629.006 122.05L629.309 124.714L621.943 125.533V127.938H628.875C628.948 127.936 629.021 127.95 629.089 127.977C629.157 128.004 629.218 128.044 629.27 128.095C629.322 128.147 629.363 128.208 629.39 128.275C629.418 128.342 629.431 128.414 629.43 128.486ZM621.912 134.414H626.726L626.695 130.612H621.912V131.939V134.414ZM495.074 126.032V122.24V122.04H491.987V126.032C491.987 133.925 487.517 141.06 481.412 142.996L482.37 145.89C487.365 144.284 491.452 139.903 493.531 134.334C495.629 139.873 499.696 144.314 504.691 145.89L505.649 142.996C499.545 141.07 495.115 133.935 495.074 126.032ZM512.651 126.471L505.78 133.436L507.707 135.302L509.1 133.895V145.431H512.187V130.762L514.578 128.337L512.651 126.471ZM510.795 122.03H514.568L507.707 128.985L505.78 127.119L510.795 122.03ZM612.659 125.872V123.277H600.157L601.398 122.03H597.584L592.084 127.528L594.022 129.395L595.929 127.479C597.183 128.497 598.535 129.393 599.965 130.153C597.349 130.799 594.669 131.161 591.973 131.231L592.044 134.065C596.013 133.984 599.936 133.218 603.638 131.8C607.14 133.046 610.825 133.72 614.546 133.795V130.921C612.11 130.853 609.687 130.549 607.311 130.013C609.274 128.878 611.073 127.485 612.659 125.872ZM597.917 125.872H609.016C607.372 127.148 605.551 128.184 603.608 128.946C601.567 128.206 599.649 127.17 597.917 125.872ZM604.365 135.612H612.548C612.622 135.609 612.695 135.621 612.763 135.647C612.832 135.673 612.894 135.712 612.947 135.762C613 135.813 613.041 135.873 613.07 135.94C613.099 136.006 613.113 136.078 613.113 136.15V142.138C613.124 142.624 613.014 143.105 612.794 143.54C612.575 143.974 612.251 144.349 611.852 144.633C610.823 145.411 609.188 145.78 606.948 145.78C605.46 145.777 603.976 145.603 602.529 145.261L603.376 142.737C604.575 143.027 605.804 143.181 607.039 143.196C607.991 143.215 608.94 143.073 609.844 142.777C609.902 142.76 609.952 142.724 609.985 142.675C610.018 142.626 610.033 142.566 610.026 142.507V138.306H603.527C600.753 144.303 594.85 145.361 592.186 145.82L591.479 145.95L590.874 142.956L591.641 142.807C594.052 142.387 597.786 141.729 600.036 138.296H592.347V135.612H601.277V134.274H604.365V135.612Z" fill="black"/>
</g>
<path fill-rule="evenodd" clip-rule="evenodd" d="M128.911 63.7785H178.611V83.0845H160.146C162.39 100.494 158.248 117.732 148.239 130.487C137.885 143.76 122.181 151 104.233 151C79.0377 151 53.152 134.797 53.152 107.734C53.152 91.8756 62.2983 78.6027 77.4846 72.2249C66.0948 65.6747 60.5725 55.5046 60.5725 40.8527C60.5725 17.5822 79.9006 0 105.441 0C120.627 0 131.845 3.27511 142.889 11.032L144.615 12.2386L133.053 27.7523L131.499 26.718C123.389 21.2021 115.795 18.7888 105.959 18.7888C90.0823 18.7888 80.5908 27.0628 80.5908 40.8527C80.5908 55.1598 91.4628 63.7785 101.817 63.7785H110.963V82.395H102.68C90.2548 82.395 72.9977 92.0479 72.9977 107.562C72.9977 128.764 92.4983 131.866 104.233 131.866C116.486 131.866 125.977 127.902 132.707 119.973C140.301 111.009 143.579 97.5639 141.854 82.9121H128.911V63.7785ZM21.744 4.82645H0V145.656H21.744V4.82645ZM218.648 24.1324V75.5H252.817C260.928 75.5 267.313 73.9486 271.8 71.0182C276.287 68.0879 278.53 62.9166 278.53 55.6769V44.3002C278.53 37.0605 276.287 31.8892 271.8 28.7865C267.313 25.6838 260.928 24.1324 252.817 24.1324H218.648ZM196.904 4.82645H256.096C270.419 4.82645 281.637 8.79107 289.747 16.5479C297.858 24.4771 302 35.5091 302 49.6438C302 63.7785 297.858 74.8105 289.575 82.7397C281.291 90.8413 270.074 94.8059 255.923 94.8059H218.648V145.656H196.904V4.82645Z" fill="black"/>
<path d="M0 199H296.119" stroke="#1D1D1B" stroke-width="3"/>
<defs>
<clipPath id="clip0_802_3623">
<rect width="330" height="24" fill="white" transform="translate(314 122)"/>
</clipPath>
</defs>
</svg>
