<svg width="355" height="56" viewBox="0 0 355 56" fill="none" xmlns="http://www.w3.org/2000/svg">
<g clip-path="url(#clip0_804_404)">
<path fill-rule="evenodd" clip-rule="evenodd" d="M12.4422 4.716C17.0486 1.6395 22.464 -0.00169453 28.0033 1.3129e-06C35.4281 1.3129e-06 42.5487 2.94954 47.7988 8.19975C53.0488 13.45 55.9983 20.5708 55.9983 27.9957C56 33.5352 54.3588 38.9507 51.2824 43.5573C48.206 48.1639 43.8325 51.7546 38.7152 53.8752C33.5979 55.9959 27.9666 56.5512 22.5336 55.4709C17.1007 54.3906 12.1101 51.7233 8.19327 47.8063C4.27639 43.8893 1.60913 38.8987 0.528885 33.4656C-0.551364 28.0325 0.00392483 22.401 2.12451 17.2835C4.24509 12.1661 7.83571 7.7925 12.4422 4.716ZM6.97067 37.3505H10.1174V17.0632H6.97067V37.3505ZM30.1212 28.313H32.7878L32.7535 25.5263H25.5768V28.2787H27.446C27.599 29.2113 27.56 30.1653 27.3315 31.0824C27.103 31.9995 26.6897 32.8602 26.117 33.612C25.6045 34.1871 24.9694 34.6398 24.2585 34.9366C23.5476 35.2334 22.7792 35.3668 22.0099 35.3269C20.3208 35.3269 17.4913 34.8725 17.4913 31.8285C17.4913 29.582 19.9864 28.2101 21.7784 28.2101H22.9617V25.5177H21.6327C21.213 25.5067 20.7998 25.4121 20.4171 25.2395C20.0345 25.0668 19.6901 24.8195 19.4043 24.5121C19.1184 24.2046 18.8968 23.8432 18.7523 23.4491C18.6079 23.0549 18.5435 22.6359 18.5631 22.2165C18.5631 20.2272 19.9349 19.0354 22.2414 19.0354C23.5615 19.0062 24.8553 19.4064 25.9284 20.1758L26.1513 20.3301L27.8661 18.1007L27.6175 17.9293C26.0424 16.8166 24.1423 16.2586 22.2157 16.343C18.5202 16.343 15.7336 18.8725 15.7336 22.2165C15.6639 23.1225 15.8575 24.0294 16.291 24.828C16.7245 25.6266 17.3795 26.283 18.1772 26.7181C17.136 27.1139 16.2409 27.8191 15.6124 28.7389C14.9839 29.6587 14.6522 30.7489 14.6618 31.8628C14.6618 35.7556 18.4173 38.0879 22.0442 38.0879C23.2608 38.1178 24.4679 37.8664 25.5714 37.3533C26.6749 36.8402 27.6451 36.0792 28.4063 35.1297C29.1291 34.1635 29.6529 33.0635 29.9473 31.8933C30.2417 30.7231 30.3008 29.5061 30.1212 28.313ZM38.5754 30.0279H43.9343H44.0115C44.8962 30.0766 45.7818 29.9503 46.6175 29.656C47.4533 29.3617 48.2227 28.9053 48.8816 28.313C50.0336 26.9919 50.6682 25.2983 50.6682 23.5455C50.6682 21.7927 50.0336 20.0992 48.8816 18.7781C47.5478 17.5867 45.7975 16.9704 44.0115 17.0632H35.4372V37.3333H38.5754V30.0279ZM43.5487 19.8329C44.5083 19.7789 45.4626 20.0085 46.2925 20.4932C46.6307 20.7513 46.8972 21.0917 47.0668 21.4819C47.2364 21.8721 47.3034 22.2992 47.2614 22.7225V24.3688C47.3037 24.7902 47.2348 25.2154 47.0619 25.602C46.8889 25.9886 46.6177 26.3232 46.2754 26.5725C45.4419 27.0469 44.4891 27.2702 43.5316 27.2156H38.5757V19.8329H43.5487Z" fill="#CEECFF"/>
<path fill-rule="evenodd" clip-rule="evenodd" d="M257.87 18.8818C257.958 18.9703 258.008 19.0902 258.008 19.2153V22.2078H260.143V24.2142H258.008V27.2153C258.008 27.3412 257.959 27.462 257.87 27.5518C257.782 27.6417 257.662 27.6932 257.536 27.6955H253.395V29.1617H258.008V31.151H253.395V32.643H260.143V34.6322H253.395V37.1617H250.771V34.6322H244.409V32.643H250.771V31.151H246.484V29.1617H250.771V27.6783H246.484V25.6891H250.771V24.1971H246.484V22.2078H250.771V20.733H246.484V18.7437H250.771V17.0288H253.395V18.7437H257.536C257.661 18.7437 257.781 18.7934 257.87 18.8818ZM253.395 25.7062H256.019V24.2142H253.395V25.7062ZM253.395 22.2249H256.019V20.733H253.395V22.2249ZM140.969 17.0459L141.604 19.4296L135.568 22.9623H145.162V34.2377C145.171 34.6552 145.078 35.0685 144.891 35.442C144.704 35.8155 144.43 36.1379 144.09 36.3814C143.216 37.0588 141.827 37.376 139.923 37.376C138.83 37.3665 137.74 37.2603 136.665 37.0588L137.42 34.9151C139.052 35.3351 140.767 35.3055 142.384 34.8294C142.538 34.7951 142.538 34.6322 142.538 34.555V25.3117H140.995L140.952 25.4746C140.622 27.8541 139.741 30.1236 138.38 32.1027C136.974 34.1669 135.06 35.8352 132.824 36.9473L131.666 34.6064C133.496 33.6841 135.067 32.3195 136.236 30.6364C137.275 29.0835 137.978 27.3315 138.303 25.4918V25.286H136.682L136.639 25.406C135.588 28.4104 133.39 30.8766 130.526 32.2656L129.849 30.8765L129.377 29.9248C131.292 29.0009 132.839 27.4569 133.767 25.5432L133.878 25.2602H130.946V22.9623L137.18 19.3439H130.963V17.0459H140.969ZM156.686 17.0635H153.985L147.709 27.1556L149.655 28.3818L150.573 26.8727H164.617V34.6583C164.617 34.8127 164.54 34.8899 164.463 34.8899C163.695 35.1439 162.889 35.2657 162.079 35.25C160.359 35.205 158.656 34.8836 157.038 34.2982L156.318 36.3647C158.117 37.117 160.052 37.4934 162.002 37.4708C163.906 37.4708 165.295 37.1535 166.169 36.4847C166.509 36.2412 166.783 35.9188 166.97 35.5453C167.157 35.1719 167.25 34.7585 167.241 34.3411V25.0292C167.244 24.9659 167.233 24.9027 167.21 24.8438C167.186 24.7848 167.151 24.7315 167.105 24.687C167.06 24.6426 167.006 24.6082 166.947 24.5859C166.888 24.5636 166.824 24.5539 166.761 24.5576H151.996L153.942 21.4193H167.19V19.1128H155.357L156.686 17.0635ZM162.876 29.8394H148.823V32.1459H162.876V29.8394ZM127.002 17.0635H124.378V19.9445H121.96V22.2082H124.378V26.4954L121.96 27.9188V30.4911L124.378 29.0592V35.2757H121.96V37.5822H124.147C124.914 37.5777 125.649 37.271 126.191 36.7284C126.734 36.1859 127.04 35.4513 127.045 34.684V27.5586L129.103 26.3239V23.7516L127.002 24.9863V22.2853H129.103V19.9788H127.002V17.0635ZM96.7603 22.9968H98.981L99.0753 25.3033H96.8546V30.7396C96.857 30.8033 96.8462 30.8668 96.823 30.9261C96.7997 30.9855 96.7644 31.0394 96.7193 31.0845C96.6742 31.1296 96.6203 31.1648 96.561 31.1881C96.5017 31.2114 96.4381 31.2222 96.3744 31.2198H90.3724V31.3741C90.2381 33.017 89.4877 34.5484 88.2717 35.6613C87.1268 36.5882 85.8009 37.2658 84.3791 37.6506L83.6245 35.1469C84.665 34.8765 85.6375 34.3917 86.4797 33.7235C87.127 33.112 87.5473 32.2987 87.6716 31.417V31.2198H84.0189V28.9132H87.7487V25.3033H84.0189V22.9968H87.7487V19.3869H84.0189V17.0804H96.2372C96.3009 17.078 96.3645 17.0888 96.4238 17.1121C96.4832 17.1353 96.537 17.1706 96.5821 17.2157C96.6272 17.2608 96.6625 17.3147 96.6858 17.374C96.709 17.4334 96.7198 17.4969 96.7174 17.5606H96.7603V22.9968ZM90.3296 28.9132H94.0594V25.3033H90.3296V28.9132ZM90.3296 22.9968H94.0594V19.3869H90.3296V22.9968ZM74.5532 25.8264L76.4996 27.0525L78.7632 23.4427V37.179H81.3783V19.1983L82.7245 17.0547H80.0322L74.5532 25.8264ZM172.411 27.4126H188.291C188.352 27.4096 188.413 27.4201 188.47 27.4432C188.527 27.4664 188.578 27.5016 188.619 27.5466C188.661 27.5915 188.692 27.645 188.711 27.7033C188.73 27.7617 188.736 27.8234 188.728 27.8842V37.1789H186.104V35.627H174.555V37.1789H171.931V27.8842C171.93 27.8212 171.942 27.7586 171.965 27.7003C171.989 27.642 172.025 27.5891 172.07 27.545C172.115 27.5008 172.168 27.4663 172.227 27.4435C172.286 27.4208 172.348 27.4103 172.411 27.4126ZM174.555 33.329H186.104V29.6763H174.555V33.329ZM182.177 17.0635H178.482C177.515 18.1749 176.391 19.1397 175.147 19.9274C173.504 21.1081 171.699 22.0439 169.788 22.7055L170.388 25.2778C171.622 24.9374 172.808 24.4449 173.92 23.8116L174.195 23.6487V25.475H186.465V23.6487L186.739 23.8116C187.854 24.4449 189.044 24.9374 190.28 25.2778L190.872 22.7055C188.952 22.0636 187.144 21.1263 185.513 19.9274C184.279 19.1248 183.157 18.1618 182.177 17.0635ZM175.035 23.1428L175.584 22.7827C176.107 22.4654 176.621 22.1053 177.093 21.7537C178.226 20.9593 179.277 20.0545 180.231 19.0528L180.394 18.8898L180.548 19.0528C181.495 20.0628 182.547 20.9683 183.686 21.7537C184.167 22.1053 184.681 22.4654 185.196 22.7827L185.753 23.1428H175.035ZM105.198 19.3529H99.8903V17.0635H118.411V19.3529H107.736V19.5501C107.736 20.4245 107.693 21.616 107.65 22.8076L107.65 22.8077V22.8079V22.808V22.808L107.65 22.8084V23.0056H117.339C117.403 23.0032 117.466 23.014 117.525 23.0373C117.585 23.0605 117.639 23.0958 117.684 23.1409C117.729 23.186 117.764 23.2399 117.787 23.2992C117.811 23.3586 117.821 23.4221 117.819 23.4858V34.3582C117.828 34.7757 117.735 35.189 117.548 35.5625C117.361 35.936 117.086 36.2584 116.747 36.5019C115.873 37.1707 114.484 37.4879 112.58 37.4879C110.629 37.5154 108.694 37.1388 106.895 36.3818L107.616 34.3153C109.234 34.9007 110.937 35.2221 112.657 35.2671C113.466 35.2802 114.272 35.1585 115.041 34.907C115.195 34.8727 115.195 34.7098 115.195 34.6326V25.3464H107.478V25.5008C107.327 26.6263 107.1 27.7406 106.801 28.8363C106.304 30.726 105.409 32.4877 104.175 34.0034C102.942 35.5191 101.399 36.7539 99.6502 37.6251L98.4927 35.2843C99.9201 34.5813 101.178 33.5771 102.18 32.3411C103.182 31.1051 103.905 29.6666 104.297 28.1246C104.977 25.3196 105.266 22.4341 105.155 19.5501L105.198 19.3529ZM197.902 17.0547L192.423 25.8264L194.37 27.0525L196.625 23.4427V37.179H199.248V19.1983L200.595 17.0547H197.902ZM209.272 19.6959C209.182 22.5396 209.47 25.3827 210.129 28.1503C210.504 29.6744 211.202 31.0998 212.177 32.3295C213.152 33.5591 214.381 34.564 215.78 35.2757L214.622 37.6165C211.603 36.1439 209.26 33.5737 208.072 30.4311L207.917 29.9938L207.754 30.4311C206.554 33.5659 204.214 36.1321 201.204 37.6165L200.055 35.2757C201.469 34.5802 202.714 33.5835 203.702 32.3554C204.69 31.1274 205.397 29.698 205.774 28.1675C206.457 25.4038 206.745 22.5575 206.631 19.713V17.0635H209.272V19.6959ZM203.929 19.6482L200.531 25.9795L202.564 27.0702L205.961 20.7388L203.929 19.6482ZM210.302 25.9824L213.7 19.6511L215.732 20.7417L212.335 27.0731L210.302 25.9824ZM299.499 17.0635H296.866V18.1267H288.164V20.116H296.866V21.1707H290.864C290.802 21.1707 290.74 21.1831 290.682 21.2074C290.624 21.2316 290.572 21.2671 290.528 21.3118C290.484 21.3565 290.449 21.4095 290.426 21.4677C290.403 21.5259 290.392 21.5882 290.393 21.6508V25.3893C290.392 25.4516 290.403 25.5134 290.426 25.5711C290.45 25.6289 290.484 25.6813 290.528 25.7254C290.572 25.7694 290.625 25.8041 290.683 25.8274C290.74 25.8507 290.802 25.8621 290.864 25.8609H296.866V26.7184H290.384V28.6476H296.866V29.5051H288.164V31.4343H296.866V32.2918H290.384V34.221H296.866V35.4129H294.037V37.6423H296.609C297.37 37.64 298.1 37.3366 298.638 36.7984C299.176 36.2602 299.479 35.5309 299.482 34.7698V34.1696H305.569C305.695 34.1696 305.816 34.1202 305.906 34.032C305.996 33.9438 306.047 33.8238 306.049 33.698V31.4086H308.262V29.4793H306.092V27.1899C306.09 27.0641 306.038 26.9442 305.949 26.8559C305.859 26.7677 305.738 26.7183 305.612 26.7184H299.524V25.8609H305.612C305.675 25.8621 305.737 25.8507 305.795 25.8275C305.853 25.8043 305.906 25.7697 305.951 25.7258C305.996 25.6819 306.031 25.6296 306.056 25.5718C306.08 25.514 306.092 25.452 306.092 25.3893V21.6508C306.092 21.5235 306.042 21.4013 305.952 21.3113C305.862 21.2212 305.74 21.1707 305.612 21.1707H299.524V20.116H308.305V18.1267H299.499V17.0635ZM296.866 23.9231H292.073V23.0656H296.866V23.9231ZM304.369 32.206H299.499V31.3486H304.377L304.369 32.206ZM304.369 28.6133V29.4708H299.499V28.6133H304.369ZM304.369 23.0913V23.9488H299.499V23.0913H304.369ZM271.795 17.0635H276.7H276.717H284.888V19.3529H279.332V21.6423H284.099C284.225 21.6422 284.346 21.6916 284.436 21.7798C284.526 21.868 284.577 21.988 284.579 22.1139V32.2661C284.577 33.0272 284.274 33.7565 283.736 34.2947C283.198 34.8329 282.468 35.1362 281.707 35.1385H280.37V32.8577H281.87V23.9231H279.298V37.1621H276.725V23.9231H274.102V35.1557H271.478V22.131C271.478 22.0059 271.528 21.886 271.616 21.7975C271.705 21.7091 271.825 21.6594 271.95 21.6594H276.725V19.37H271.795V17.0635ZM265.639 20.3901H263.015V28.8103H265.639V20.3901ZM263.855 35.713C266.779 32.9349 267.105 31.2714 267.105 25.8781V17.0635H269.72V25.8781C269.72 31.6058 269.369 34.0924 265.656 37.608L263.855 35.713ZM346.949 23.5201V19.773L354.262 19.3614L354.108 17.0635L344.299 17.6123V25.5608C344.299 30.9456 343.982 32.6176 341.058 35.3872L342.859 37.2907C346.511 33.8609 346.906 31.3486 346.923 25.818H350.138V37.1707H352.762V25.8266H354.966V23.5201H346.949ZM342.585 22.6023V29.5219C342.585 29.5842 342.572 29.6458 342.548 29.7032C342.524 29.7605 342.488 29.8123 342.443 29.8556C342.398 29.8988 342.345 29.9325 342.287 29.9548C342.229 29.977 342.167 29.9873 342.105 29.985H336.068C335.725 32.8831 334.756 34.8381 332.184 37.2904L330.469 35.3869C333.393 32.6173 333.719 30.9453 333.719 25.5605V18.0321L342.225 17.0718L342.482 19.3612L336.223 20.0643V22.1307H342.113C342.175 22.1296 342.237 22.141 342.295 22.1642C342.353 22.1875 342.405 22.2222 342.449 22.2662C342.493 22.3103 342.528 22.3627 342.551 22.4205C342.574 22.4782 342.586 22.5401 342.585 22.6023ZM336.197 27.6956H340.287L340.261 24.4287H336.197V25.5691V27.6956ZM228.418 20.4933V17.235V17.0635H225.794V20.4933C225.794 27.2757 221.996 33.4065 216.809 35.0699L217.623 37.5565C221.867 36.176 225.34 32.4118 227.106 27.6273C228.89 32.3861 232.345 36.2017 236.589 37.5565L237.404 35.0699C232.217 33.415 228.452 27.2843 228.418 20.4933ZM243.346 20.8701L237.507 26.8551L239.153 28.4585L240.336 27.2495V37.1616H242.96V24.5571L244.992 22.4735L243.346 20.8701ZM241.777 17.0547H244.984L239.153 23.0311L237.507 21.4363L241.777 17.0547ZM328.334 20.3559V18.1265H317.711L318.765 17.0547H315.524L310.851 21.7792L312.497 23.3827L314.118 21.7364C315.184 22.6118 316.333 23.3814 317.548 24.0343C315.325 24.5896 313.047 24.9001 310.757 24.9604L310.817 27.3955C314.189 27.3262 317.523 26.6675 320.669 25.4491C323.645 26.5198 326.775 27.099 329.937 27.164V24.6946C327.868 24.6357 325.809 24.3744 323.79 23.9143C325.458 22.9384 326.987 21.7415 328.334 20.3559ZM315.807 20.3559H325.239C323.842 21.4526 322.294 22.3421 320.643 22.9968C318.909 22.3612 317.279 21.4711 315.807 20.3559ZM321.286 28.7247H328.24C328.302 28.7224 328.364 28.7326 328.422 28.7549C328.48 28.7771 328.534 28.8108 328.578 28.8541C328.623 28.8973 328.659 28.9491 328.683 29.0064C328.707 29.0638 328.72 29.1254 328.72 29.1877V34.3324C328.729 34.7499 328.636 35.1632 328.449 35.5366C328.262 35.9101 327.987 36.2325 327.648 36.476C326.774 37.1448 325.385 37.4621 323.481 37.4621C322.216 37.4593 320.956 37.3096 319.726 37.0162L320.446 34.8468C321.465 35.0962 322.509 35.2286 323.558 35.2413C324.367 35.2577 325.174 35.1359 325.942 34.8811C325.991 34.8672 326.033 34.8363 326.062 34.7938C326.09 34.7514 326.102 34.7003 326.096 34.6496V31.0398H320.574C318.216 36.193 313.201 37.1019 310.937 37.4963L310.337 37.6078L309.822 35.0355L310.474 34.9069C312.523 34.5467 315.696 33.9808 317.608 31.0312H311.074V28.7247H318.662V27.5757H321.286V28.7247Z" fill="#CEECFF"/>
</g>
<defs>
<clipPath id="clip0_804_404">
<rect width="355" height="56" fill="white"/>
</clipPath>
</defs>
</svg>
