<svg width="196" height="20" viewBox="0 0 196 20" fill="none" xmlns="http://www.w3.org/2000/svg">
<path fill-rule="evenodd" clip-rule="evenodd" d="M8.04751 0H5.39105L0 8.53845L1.91421 9.69229L4.14095 6.1923V19.5H6.71928V2.11538L8.04751 0ZM52.1915 0H49.6132V2.88461H47.2302V5.11538H49.6132V9.23075L47.2302 10.6154V13.1154L49.6132 11.7307V17.2692H47.2302V19.5H49.3788C50.9414 19.5 52.2306 18.2307 52.2306 16.6923V10.2692L54.3011 9.07691V6.57691L52.2306 7.76922V5.15384H54.3011V2.88461H52.2306V0H52.1915ZM194.624 9.53848V7.30772H187.827V0.0385H185.249V7.30772H178.451V9.53848H185.249V12.5769H178.451V14.8077H185.249V19.5H187.827V14.8077H194.624V12.5769H187.827V9.53848H194.624ZM23.088 0.0385C23.3614 0.0385 23.5568 0.230807 23.5568 0.500037H23.5177V5.80772H25.7054V8.03848H23.5177V13.3077C23.5177 13.5769 23.3224 13.7692 23.0489 13.7692H17.2281V13.9231C17.0328 15.6539 16.3296 17.0385 15.1577 18.0769C13.9857 19.0769 12.5793 19.6154 11.3292 20L10.587 17.5769C11.5636 17.2692 12.6184 16.8846 13.3997 16.1923C14.0248 15.6154 14.4154 14.8846 14.5717 13.9616L14.6108 13.7692H11.0167V11.5385H14.6889V8.00002H11.0167V5.76926H14.6889V2.26926H11.0167V0.0385H23.088ZM17.2672 11.5385H20.9394V8.03848H17.2672V11.5385ZM17.2672 5.80772H20.9394V2.26926H17.2672V5.80772ZM121.885 0H124.541L123.213 2.11538V19.5H120.635V6.1923L118.408 9.69229L116.494 8.53845L121.885 0ZM113.251 10.8461H97.6247C97.3512 10.8461 97.1559 11.0384 97.1559 11.3076V19.4999H99.7342V17.9999H111.102V19.4999H113.681V11.3076C113.72 11.0769 113.485 10.8461 113.251 10.8461ZM111.102 15.8076H99.7342V13.0768H111.102V15.8076ZM103.602 0.0385H107.235C107.665 0.615422 108.759 1.61542 110.517 2.80773C112.431 4.11541 114.423 5.15387 115.79 5.50003L115.204 7.96156C114.228 7.73079 113.017 7.23079 111.728 6.53849L111.454 6.38464V8.15387H99.3829V6.38464L99.1095 6.53849C97.8203 7.23079 96.6093 7.73079 95.6326 7.96156L95.0467 5.50003C96.3749 5.11541 98.4063 4.11541 100.321 2.80773C102.078 1.61542 103.172 0.615422 103.602 0.0385ZM100.75 5.57695L100.203 5.9231H110.751L110.204 5.57695C109.696 5.26926 109.188 4.9231 108.72 4.57695C107.352 3.61542 106.337 2.7308 105.633 1.96157L105.477 1.80773L105.321 1.96157C104.618 2.7308 103.563 3.61542 102.235 4.57695C101.766 4.9231 101.258 5.26926 100.75 5.57695ZM176.615 0H173.959L168.568 8.53845L170.482 9.69229L172.709 6.1923V19.5H175.287V2.11538L176.615 0ZM147.98 0H150.676L149.348 2.11538V19.5H146.73V6.1923L144.543 9.69229L142.589 8.53845L147.98 0ZM132.55 0H129.893L124.502 8.53845L126.416 9.69229L129.893 4.23076H131.807V19.5H134.425V14.8077H140.871V12.5769H134.425V9.53844H140.871V7.30768H134.425V4.23076H140.871V2H131.299L132.55 0ZM79.4202 0H82.0767L80.7875 2H92.4291V4.23076H79.3812L77.467 7.26922H91.9603C92.2337 7.26922 92.4291 7.46152 92.4291 7.73075V7.92306V16.7307C92.4291 17.5769 92.0775 18.3077 91.3743 18.8077C90.5149 19.4615 89.1476 19.7692 87.2724 19.7692C85.0066 19.7692 82.7799 19.2307 81.6861 18.6923L82.3892 16.6923C83.4831 17.0769 85.4363 17.6153 87.3506 17.6153C88.2491 17.6153 89.0304 17.5 89.6945 17.2692C89.7726 17.2692 89.8507 17.1923 89.8507 17.0384V16.8846V16.3077V14.423V9.69229V9.49998H76.0606L75.1621 10.9615L73.2479 9.76921L79.4202 0ZM88.2102 12.3846H74.381V14.6153H88.2102V12.3846ZM30.5885 10.7308C31.3698 8.07695 31.448 5.07695 31.448 2.46157V2.26926H26.6429V0.0385H44.5349V2.26926H34.0263V2.46157C34.0263 3.30772 33.9872 4.46157 33.9482 5.61541V5.80772H43.4802C43.7536 5.80772 43.9489 6.00003 43.9489 6.26926V16.7308C43.9489 17.5769 43.5974 18.3077 42.8942 18.8077C42.0347 19.4615 40.6674 19.7692 38.7923 19.7692C36.4874 19.7692 34.2998 19.2308 33.2059 18.6923L33.9482 16.7308C35.042 17.1154 36.9953 17.6539 38.9095 17.6539C39.7689 17.6539 40.5893 17.5385 41.2534 17.3077C41.4097 17.2692 41.4097 17.1154 41.4097 17.0385V16.8077V16V13.3846V8.23079V8.03848H33.7528L33.7138 8.19233C33.5575 9.38463 33.3231 10.4231 33.0497 11.4231C31.9168 15.3077 29.651 18.0769 26.096 19.8846L24.9631 17.6154C27.8539 16.1539 29.651 13.9615 30.5885 10.7308ZM67.8177 2.38463L67.1926 0.076939H57.3481V2.3077H63.4814L57.3481 5.76924V8H60.2389L60.1217 8.26923C59.2232 10.1154 57.7778 11.5 55.7855 12.5L56.2543 13.4231L56.9184 14.7692C59.8874 13.2692 61.8406 11.0769 62.9345 8.11538L62.9735 8H64.5752L64.5361 8.19231C64.2236 9.96153 63.5204 11.6538 62.5047 13.1538C61.3718 14.7692 59.8092 16.1154 58.0122 17L59.1451 19.2692C61.3328 18.1923 63.247 16.5769 64.6143 14.5769C65.9425 12.6538 66.841 10.4615 67.1535 8.15385L67.1926 8H68.7162V8.19231V13.3461V15.9615V16.7692V17C68.7162 17.0769 68.7162 17.2308 68.5599 17.2692C67.3098 17.7308 65.63 17.7307 63.6767 17.3461L62.9345 19.4231C63.9892 19.6154 65.1221 19.7307 66.1378 19.7307C68.013 19.7307 69.3803 19.4231 70.2397 18.7692C70.9429 18.2692 71.2945 17.5384 71.2945 16.6923V5.8077H61.8797L67.8177 2.38463ZM189.297 5.00737L192.045 0.666458L193.968 1.84653L191.219 6.18745L189.297 5.00737ZM181.033 0.642828L179.11 1.8229L181.859 6.16381L183.781 4.98374L181.033 0.642828ZM161.263 2.53843C161.302 5.73073 161.419 8.34611 162.122 10.7307C163.06 13.923 164.857 16.1153 167.67 17.6153L166.537 19.8845C163.45 18.3461 161.341 16.0384 160.091 12.923L159.935 12.4999L159.778 12.923C158.528 16.0384 156.419 18.3076 153.333 19.8845L152.2 17.6153C155.09 16.1538 156.887 13.9615 157.825 10.7307C158.528 8.38457 158.684 5.73073 158.684 2.53843V1.38458V0.999969V0.153817H161.263V0.999969V1.38458V2.53843ZM166.393 2.60909L162.648 8.51385L164.57 9.69549L168.315 3.79072L166.393 2.60909ZM151.675 3.80656L153.597 2.62493L157.342 8.52969L155.42 9.71133L151.675 3.80656Z" fill="white"/>
</svg>
