<svg width="275" height="20" viewBox="0 0 275 20" fill="none" xmlns="http://www.w3.org/2000/svg">
<path fill-rule="evenodd" clip-rule="evenodd" d="M179.778 1.79717C179.865 1.88295 179.914 1.99929 179.914 2.12059V5.02287H182.008V6.96881H179.914V9.87941C179.914 10.0015 179.865 10.1187 179.779 10.2058C179.692 10.2929 179.575 10.3429 179.451 10.3451H175.39V11.7671H179.914V13.6964H175.39V15.1434H182.008V17.0727H175.39V19.526H172.817V17.0727H166.577V15.1434H172.817V13.6964H168.612V11.7671H172.817V10.3285H168.612V8.39916H172.817V6.95219H168.612V5.02287H172.817V3.59252H168.612V1.6632H172.817V0H175.39V1.6632H179.451C179.574 1.6632 179.692 1.7114 179.778 1.79717ZM175.39 8.41578H177.963V6.96881H175.39V8.41578ZM175.39 5.03949H177.963V3.59252H175.39V5.03949ZM65.1344 0.0167041L65.7566 2.32855L59.8368 5.75474H69.2462V16.6903C69.2548 17.0951 69.1636 17.496 68.9804 17.8582C68.7973 18.2204 68.5278 18.5331 68.1951 18.7693C67.3374 19.4262 65.9752 19.7339 64.1085 19.7339C63.0363 19.7247 61.967 19.6217 60.9131 19.4262L61.6531 17.3472C63.2538 17.7546 64.9362 17.7258 66.5218 17.2641C66.6731 17.2308 66.6731 17.0728 66.6731 16.998V8.03331H65.1596L65.1175 8.19132C64.7939 10.499 63.9301 12.7002 62.5949 14.6196C61.2157 16.6216 59.3394 18.2395 57.146 19.3181L56.0108 17.0478C57.8055 16.1533 59.346 14.8298 60.4927 13.1975C61.5109 11.6914 62.2011 9.99218 62.5192 8.20794V8.00836H60.93L60.8879 8.1248C59.8566 11.0386 57.7012 13.4304 54.8925 14.7776L54.2282 13.4304L53.7657 12.5073C55.6442 11.6113 57.1613 10.1138 58.071 8.25786L58.1803 7.98342H55.3045V5.75474L61.4177 2.24538H55.3213V0.0167041H65.1344ZM80.5476 0.0333485H77.8988L71.7436 9.82127L73.6524 11.0105L74.5521 9.54685H88.3257V17.0978C88.3257 17.2475 88.25 17.3223 88.1743 17.3223C87.4207 17.5687 86.6303 17.6868 85.8367 17.6716C84.1492 17.6279 82.4798 17.3163 80.8923 16.7485L80.186 18.7527C81.951 19.4823 83.8482 19.8473 85.761 19.8254C87.6277 19.8254 88.99 19.5177 89.8476 18.8691C90.1803 18.6329 90.4498 18.3203 90.633 17.958C90.8161 17.5958 90.9073 17.195 90.8987 16.7901V7.75892C90.9012 7.69749 90.8906 7.63623 90.8677 7.57909C90.8448 7.52194 90.8101 7.47017 90.7657 7.42709C90.7214 7.38402 90.6684 7.35061 90.6102 7.32898C90.552 7.30736 90.4899 7.29799 90.4279 7.30152H75.948L77.8568 4.25786H90.8483V2.02088H79.2442L80.5476 0.0333485ZM86.6184 12.4157H72.8364V14.6527H86.6184V12.4157ZM51.4366 0.0333485H48.8635V2.82751H46.4923V5.02295H48.8635V9.18094L46.4923 10.5614V13.0562L48.8635 11.6674V17.6965H46.4923V19.9335H48.6365C49.3889 19.9292 50.1093 19.6316 50.6413 19.1054C51.1734 18.5793 51.4742 17.8668 51.4786 17.1227V10.2121L53.4967 9.01461V6.51981L51.4366 7.71732V5.09779H53.4967V2.86078H51.4366V0.0333485ZM21.7788 5.78807H23.9567L24.0492 8.02505H21.8713V13.2974C21.8737 13.3592 21.8631 13.4208 21.8403 13.4783C21.8174 13.5359 21.7828 13.5882 21.7386 13.6319C21.6944 13.6756 21.6416 13.7098 21.5834 13.7324C21.5252 13.755 21.4629 13.7654 21.4004 13.7631H15.5143V13.9128C15.3825 15.5062 14.6466 16.9914 13.4541 18.0708C12.3313 18.9697 11.031 19.6268 9.63657 20.0001L8.8966 17.5718C9.91701 17.3096 10.8708 16.8394 11.6967 16.1914C12.3315 15.5983 12.7436 14.8095 12.8655 13.9544V13.7631H9.28339V11.5261H12.9412V8.02505H9.28339V5.78807H12.9412V2.28702H9.28339V0.0500144H21.2659C21.3283 0.0476805 21.3906 0.0581448 21.4488 0.0807223C21.507 0.1033 21.5599 0.137503 21.6041 0.181221C21.6483 0.224939 21.6829 0.277229 21.7057 0.334785C21.7286 0.392342 21.7391 0.453926 21.7368 0.515708H21.7788V5.78807ZM15.4722 11.5261H19.13V8.02505H15.4722V11.5261ZM15.4722 5.78807H19.13V2.28702H15.4722V5.78807ZM0 8.53226L1.90879 9.72145L4.1287 6.22041V19.5426H6.69337V2.104L8.02195 0.0249965H5.37319L0 8.53226ZM95.9685 10.0707H111.542C111.602 10.0678 111.661 10.078 111.717 10.1004C111.773 10.1229 111.823 10.1571 111.864 10.2007C111.905 10.2442 111.935 10.2961 111.954 10.3527C111.972 10.4093 111.978 10.4691 111.97 10.5281V19.5426H109.397V18.0374H98.0707V19.5426H95.4976V10.5281C95.4965 10.467 95.5079 10.4063 95.5312 10.3497C95.5546 10.2932 95.5894 10.2419 95.6335 10.1991C95.6776 10.1563 95.73 10.1228 95.7876 10.1007C95.8452 10.0786 95.9068 10.0684 95.9685 10.0707ZM98.0707 15.8088H109.397V12.2661H98.0707V15.8088ZM105.547 0.0333485H101.922C100.974 1.11129 99.8723 2.04695 98.6514 2.81089C97.0408 3.95604 95.2705 4.86364 93.3959 5.50526L93.9845 8.00006C95.1945 7.66994 96.3582 7.19227 97.4489 6.57803L97.718 6.42003V8.19134H109.751V6.42003L110.02 6.57803C111.114 7.19229 112.28 7.66994 113.493 8.00006L114.073 5.50526C112.19 4.88276 110.417 3.97372 108.818 2.81089C107.608 2.03255 106.508 1.09852 105.547 0.0333485ZM98.5421 5.92939L99.0802 5.58013C99.5932 5.27244 100.098 4.92316 100.56 4.5822C101.671 3.81168 102.702 2.93422 103.638 1.96267L103.798 1.80466L103.949 1.96267C104.877 2.94227 105.909 3.82048 107.027 4.5822C107.497 4.92316 108.002 5.27244 108.506 5.58013L109.053 5.92939H98.5421ZM30.053 2.25373H24.848V0.0333485H43.0109V2.25373H32.542V2.44498C32.542 3.29301 32.5 4.44859 32.4579 5.60424L32.4579 5.60441V5.60454V5.60464V5.60471L32.4579 5.60508V5.79633H41.9598C42.0223 5.79399 42.0846 5.80446 42.1428 5.82704C42.201 5.84961 42.2538 5.88382 42.298 5.92753C42.3422 5.97125 42.3768 6.02354 42.3997 6.0811C42.4225 6.13866 42.4331 6.20024 42.4307 6.26202V16.8067C42.4393 17.2116 42.3481 17.6124 42.1649 17.9747C41.9818 18.3369 41.7123 18.6496 41.3796 18.8857C40.5219 19.5344 39.1597 19.8421 37.2929 19.8421C35.3797 19.8687 33.4815 19.5035 31.7179 18.7693L32.4243 16.7651C34.0117 17.3329 35.6811 17.6446 37.3686 17.6882C38.162 17.7009 38.952 17.5829 39.7062 17.3389C39.8576 17.3057 39.8576 17.1477 39.8576 17.0728V8.0666H32.2897V8.21629C32.1407 9.30791 31.9188 10.3886 31.6254 11.4512C31.1378 13.284 30.2598 14.9926 29.0503 16.4626C27.8409 17.9326 26.3279 19.1302 24.6125 19.9751L23.4774 17.7048C24.8773 17.023 26.1111 16.0492 27.0939 14.8504C28.0766 13.6517 28.785 12.2565 29.1701 10.761C29.8369 8.0406 30.1198 5.24207 30.011 2.44498L30.053 2.25373ZM120.969 0.0249965L115.596 8.53226L117.504 9.72145L119.724 6.22041V19.5426H122.289V2.104L123.618 0.0249965H120.969ZM132.118 2.58637C132.03 5.34435 132.313 8.10173 132.959 10.7859C133.326 12.2641 134.011 13.6466 134.968 14.8391C135.924 16.0317 137.129 17.0063 138.501 17.6965L137.366 19.9668C134.404 18.5386 132.106 16.0458 130.941 12.998L130.79 12.5739L130.63 12.998C129.453 16.0383 127.158 18.5271 124.206 19.9668L123.079 17.6965C124.466 17.022 125.687 16.0553 126.656 14.8643C127.625 13.6733 128.318 12.2869 128.688 10.8026C129.358 8.12228 129.641 5.36172 129.529 2.60299V0.0333485H132.118V2.58637ZM126.887 2.54004L123.555 8.6805L125.548 9.73828L128.88 3.59782L126.887 2.54004ZM133.129 8.68373L136.461 2.54324L138.454 3.60103L135.122 9.74151L133.129 8.68373ZM220.603 0.0333485H218.022V1.06452H209.487V2.99384H218.022V4.01672H212.136C212.074 4.01671 212.013 4.02879 211.957 4.0523C211.9 4.0758 211.849 4.11025 211.806 4.15361C211.763 4.19696 211.729 4.24836 211.706 4.30481C211.683 4.36127 211.672 4.42165 211.673 4.48241V8.10817C211.672 8.16855 211.683 8.22853 211.706 8.28453C211.729 8.34053 211.763 8.39141 211.806 8.43411C211.849 8.47681 211.901 8.51045 211.957 8.53303C212.014 8.55562 212.075 8.5667 212.136 8.56557H218.022V9.39717H211.665V11.2683H218.022V12.0999H209.487V13.971H218.022V14.8026H211.665V16.6737H218.022V17.8296H215.247V19.9917H217.77C218.516 19.9895 219.231 19.6953 219.759 19.1734C220.287 18.6514 220.584 17.9441 220.586 17.2059V16.6238H226.557C226.68 16.6238 226.799 16.5758 226.887 16.4903C226.975 16.4048 227.025 16.2884 227.028 16.1664V13.946H229.197V12.0749H227.07V9.85454C227.067 9.73247 227.017 9.61615 226.929 9.53061C226.841 9.44506 226.722 9.39715 226.599 9.39717H220.629V8.56557H226.599C226.66 8.56667 226.721 8.55565 226.778 8.53316C226.835 8.51067 226.887 8.47715 226.931 8.43456C226.975 8.39198 227.01 8.3412 227.034 8.28516C227.057 8.22912 227.07 8.16894 227.07 8.10817V4.48241C227.07 4.3589 227.02 4.24044 226.932 4.1531C226.843 4.06577 226.724 4.01672 226.599 4.01672H220.629V2.99384H229.239V1.06452H220.603V0.0333485ZM218.022 6.68614H213.321V5.85454H218.022V6.68614ZM225.379 14.7194H220.603V13.8878H225.388L225.379 14.7194ZM225.379 11.235V12.0666H220.603V11.235H225.379ZM225.379 5.87949V6.71109H220.603V5.87949H225.379ZM193.435 0.0333485H198.245H198.261H206.275V2.25373H200.826V4.47409H205.501C205.625 4.47407 205.743 4.52198 205.831 4.60753C205.919 4.69307 205.97 4.80942 205.972 4.93148V14.7776C205.97 15.5158 205.673 16.2231 205.145 16.7451C204.617 17.2671 203.902 17.5613 203.155 17.5635H201.844V15.3514H203.315V6.68614H200.792V19.526H198.27V6.68614H195.697V17.5801H193.124V4.9481C193.124 4.8268 193.172 4.71046 193.259 4.62468C193.346 4.53891 193.463 4.49071 193.586 4.49071H198.27V2.27035H193.435V0.0333485ZM187.406 3.25989H184.833V11.4262H187.406V3.25989ZM185.648 18.1206C188.515 15.4263 188.835 13.813 188.835 8.58219V0.0333485H191.399V8.58219C191.399 14.1373 191.055 16.5489 187.414 19.9585L185.648 18.1206ZM267.138 6.29529V2.66121L274.31 2.26203L274.159 0.0333485L264.539 0.565584V8.2745C264.539 13.4969 264.228 15.1186 261.361 17.8046L263.127 19.6508C266.709 16.3244 267.096 13.8878 267.112 8.52397H270.266V19.5344H272.839V8.5323H275V6.29529H267.138ZM262.858 5.4055V12.1165C262.858 12.1769 262.845 12.2367 262.822 12.2923C262.798 12.3479 262.763 12.3982 262.719 12.4401C262.675 12.482 262.623 12.5147 262.566 12.5363C262.509 12.5579 262.448 12.5678 262.387 12.5656H256.467C256.131 15.3764 255.18 17.2724 252.658 19.6508L250.976 17.8047C253.844 15.1186 254.163 13.497 254.163 8.27453V0.973088L262.505 0.0417006L262.757 2.26206L256.618 2.94398V4.94813H262.395C262.456 4.947 262.517 4.95806 262.574 4.98064C262.63 5.00323 262.682 5.03687 262.725 5.07957C262.768 5.12227 262.802 5.17315 262.825 5.22915C262.848 5.28515 262.859 5.34513 262.858 5.4055ZM256.593 10.3452H260.604L260.579 7.17682H256.593V8.28286V10.3452ZM150.895 3.35975V0.199679V0.0333485H148.322V3.35975C148.322 9.9377 144.597 15.8836 139.51 17.4969L140.309 19.9086C144.471 18.5697 147.876 14.919 149.609 10.2787C151.358 14.894 154.746 18.5946 158.909 19.9086L159.708 17.4969C154.62 15.892 150.929 9.94602 150.895 3.35975ZM165.543 3.72556L159.816 9.53012L161.422 11.0852L162.583 9.91266V19.5259H165.156V7.30143L167.149 5.28065L165.543 3.72556ZM163.996 0.0249965H167.141L161.423 5.82125L159.817 4.26615L163.996 0.0249965ZM248.882 3.22666V1.0645H238.464L239.498 0.0249965H236.319L231.737 4.60712L233.351 6.16221L234.94 4.56555C235.986 5.41458 237.112 6.16098 238.304 6.79423C236.124 7.33277 233.891 7.63392 231.644 7.69235L231.703 10.0541C235.01 9.98686 238.28 9.34799 241.365 8.16636C244.283 9.20475 247.353 9.76649 250.455 9.82956V7.43455C248.425 7.37749 246.405 7.12403 244.426 6.67779C246.062 5.73137 247.561 4.57048 248.882 3.22666ZM236.597 3.22666H245.847C244.477 4.29031 242.959 5.15298 241.339 5.788C239.639 5.17151 238.041 4.30827 236.597 3.22666ZM241.971 11.343H248.79C248.851 11.3408 248.912 11.3507 248.969 11.3723C249.026 11.3938 249.078 11.4266 249.122 11.4685C249.166 11.5104 249.201 11.5607 249.225 11.6163C249.249 11.6719 249.261 11.7317 249.261 11.7921V16.7817C249.27 17.1865 249.178 17.5874 248.995 17.9496C248.812 18.3118 248.543 18.6245 248.21 18.8607C247.352 19.5093 245.99 19.817 244.123 19.817C242.883 19.8143 241.647 19.6692 240.44 19.3845L241.146 17.2806C242.146 17.5225 243.17 17.6508 244.199 17.6632C244.992 17.679 245.783 17.5609 246.537 17.3139C246.585 17.3004 246.626 17.2703 246.654 17.2292C246.682 17.188 246.694 17.1385 246.688 17.0893V13.5883H241.273C238.96 18.5862 234.041 19.4677 231.821 19.8502L231.233 19.9584L230.728 17.4636L231.367 17.3388C233.377 16.9895 236.488 16.4407 238.363 13.58H231.956V11.343H239.397V10.2287H241.971V11.343Z" fill="white"/>
</svg>
