<svg width="587" height="199" viewBox="0 0 587 199" fill="none" xmlns="http://www.w3.org/2000/svg">
<g clip-path="url(#clip0_5_2438)">
<path fill-rule="evenodd" clip-rule="evenodd" d="M319.837 117.694H316.037L308.438 130.119L311.202 131.845L314.31 126.668V145.996H317.937V120.8L319.837 117.694ZM341.424 117.694C341.769 117.694 342.115 118.039 342.115 118.384H342.287V126.495H345.396V129.774H342.287V137.367C342.287 137.712 341.942 138.057 341.596 138.057H333.134V138.23C332.962 140.818 331.925 142.717 330.198 144.27C328.471 145.65 326.399 146.513 324.672 147.031L323.636 143.58C323.75 143.537 323.866 143.494 323.982 143.451L323.982 143.451C325.271 142.973 326.658 142.458 327.608 141.509C328.471 140.646 329.162 139.61 329.335 138.23V137.885H324.154V134.606H329.335V129.429H324.154V126.15H329.335V120.973H324.154V117.694H341.424ZM333.134 134.433H338.315V129.256H333.134V134.433ZM333.134 126.15H338.315V120.973H333.134V126.15ZM383.044 117.694H379.417V121.836H375.963V125.114H379.417V131.154L375.963 133.053V136.677L379.417 134.778V142.889H375.963V146.168H379.072C381.317 146.168 383.217 144.27 383.217 142.026V132.708L386.153 130.982V127.358L383.217 129.084V125.287H386.153V122.008H383.217V117.694H383.044ZM573.53 117.694V128.221H563.859V131.5H573.53V135.986H563.859V139.265H573.53V145.996H577.156V139.265H587V135.986H577.156V131.5H587V128.221H577.156V117.694H573.53ZM482.863 117.694H486.663L484.763 120.8V145.996H480.964V126.668L477.855 131.845L475.092 130.119L482.863 117.694ZM470.429 133.398H448.151C447.806 133.398 447.46 133.743 447.46 134.088V145.996H451.087V143.752H467.32V145.996H470.947V134.088C471.12 133.743 470.774 133.398 470.429 133.398ZM467.493 140.646H451.26V136.677H467.493V140.646ZM456.613 117.694H461.794C462.485 118.557 464.039 120.11 466.457 121.49C469.22 123.389 472.156 124.942 474.056 125.46L473.192 129.084C471.811 128.738 470.084 128.048 468.184 127.013L467.839 126.84V129.429H450.569V127.013L450.223 127.185C448.324 128.221 446.597 128.911 445.215 129.256L444.352 125.632C446.251 125.114 449.187 123.561 451.95 121.663C454.368 119.937 455.922 118.557 456.613 117.694ZM452.468 125.805L451.778 126.322H466.63L465.939 125.805C465.248 125.46 464.557 124.942 463.867 124.424L463.867 124.424C461.794 123.044 460.413 121.836 459.376 120.628L459.204 120.455L459.031 120.628C457.995 121.836 456.441 123.044 454.541 124.424C454.195 124.683 453.85 124.899 453.505 125.114L453.504 125.115C453.159 125.33 452.814 125.546 452.468 125.805ZM561.268 117.694H557.296L549.697 130.119L552.461 131.845L555.569 126.668V145.996H559.368V120.8L561.268 117.694ZM520.166 117.694H523.965L522.066 120.8V145.996H518.439V126.668L515.158 131.845L512.567 130.119L520.166 117.694ZM498.061 117.694H494.261L486.49 130.119L489.253 131.845L494.261 123.906H497.024V145.996H500.824V139.265H509.977V135.986H500.824V131.5H509.977V128.221H500.824V123.906H509.977V120.628H496.334L498.061 117.694ZM422.074 117.694H425.873L423.973 120.455H440.725V123.734H422.074L419.31 128.221H440.034C440.38 128.221 440.725 128.566 440.725 128.911V129.256V142.026C440.725 143.407 440.207 144.442 439.171 145.133C437.962 145.996 435.889 146.513 433.299 146.513C430.018 146.513 426.909 145.823 425.355 144.96L426.391 142.026C427.945 142.544 430.709 143.407 433.472 143.407C434.853 143.407 435.889 143.234 436.926 142.889C436.926 142.889 437.098 142.717 437.098 142.544V142.372V141.509V138.748V131.845V131.5H417.411L416.029 133.57L413.266 131.845L422.074 117.694ZM434.508 135.641H414.82V138.92H434.508V135.641ZM352.131 133.398C353.167 129.429 353.34 125.114 353.34 121.318H353.167V121.145H346.259V117.866H371.819V121.145H356.794V121.318C356.794 121.97 356.755 122.66 356.715 123.389C356.669 124.204 356.621 125.066 356.621 125.977V126.322H370.264C370.61 126.322 370.955 126.668 370.955 127.013V142.199C370.955 143.58 370.437 144.615 369.401 145.305C368.192 146.168 366.12 146.686 363.529 146.686C360.248 146.686 357.139 145.996 355.585 145.133L356.621 142.199C358.175 142.717 360.939 143.58 363.702 143.58C365.083 143.58 366.12 143.407 367.156 143.062C367.328 143.062 367.328 142.889 367.328 142.717V142.717V142.372V141.164V137.367V129.946V129.601H356.448V129.774C356.276 131.5 355.93 133.053 355.585 134.433C353.858 140.128 350.577 144.097 345.569 146.686L344.014 143.407C348.159 141.336 350.749 138.057 352.131 133.398ZM405.495 121.145L404.631 117.694H390.643V120.973H399.45L390.643 125.977V129.256H394.787L394.615 129.601C393.233 132.19 391.333 134.261 388.398 135.814L389.088 137.194L390.125 139.093C394.442 136.849 397.205 133.743 398.759 129.429V129.256H401.005V129.601C400.486 132.19 399.623 134.606 398.069 136.849C396.514 139.265 394.269 141.164 391.679 142.544L393.233 145.823C396.342 144.27 399.105 141.854 401.005 138.92C402.904 136.159 404.113 132.88 404.631 129.601V129.429H406.704V129.774V137.194V140.991V142.199V142.544C406.704 142.717 406.704 142.889 406.531 142.889C404.804 143.58 402.386 143.58 399.45 143.062L398.414 146.168C399.968 146.513 401.523 146.686 402.904 146.686C405.495 146.686 407.567 146.168 408.776 145.305C409.812 144.615 410.33 143.58 410.33 142.199V126.322H396.86L405.495 121.145ZM579.241 124.951L583.17 118.654L585.954 120.389L582.025 126.686L579.241 124.951ZM567.513 118.624L564.728 120.358L568.655 126.656L571.44 124.922L567.513 118.624ZM539.163 121.318C539.163 125.977 539.335 129.774 540.372 133.225C541.753 137.885 544.344 141.164 547.97 143.234L546.416 146.513C542.099 144.27 538.99 140.818 537.263 136.332L537.09 135.641L536.918 136.332C535.191 140.991 532.255 144.27 527.765 146.513L526.21 143.234C530.355 141.164 532.946 137.885 534.327 133.225C535.363 129.774 535.536 125.977 535.536 121.318V119.592V119.074V117.866H539.163V119.074V119.592V121.318ZM546.533 121.385L541.136 130.021L543.919 131.758L549.316 123.122L546.533 121.385ZM525.541 123.245L528.325 121.508L533.722 130.144L530.939 131.881L525.541 123.245Z" fill="#1D1D1B"/>
<path fill-rule="evenodd" clip-rule="evenodd" d="M129.005 63.8514H178.742V83.1794H160.264C162.509 100.609 158.364 117.866 148.347 130.637C137.986 143.925 122.27 151.173 104.31 151.173C79.0956 151.173 53.1909 134.951 53.1909 107.857C53.1909 91.9806 62.3439 78.6926 77.5413 72.3074C66.1433 65.7497 60.617 55.568 60.617 40.8994C60.617 17.6023 79.9591 0 105.518 0C120.716 0 131.941 3.27886 142.994 11.0446L144.721 12.2526L133.15 27.784L131.596 26.7486C123.479 21.2263 115.88 18.8103 106.036 18.8103C90.1483 18.8103 80.6499 27.0937 80.6499 40.8994C80.6499 55.2229 91.5299 63.8514 101.892 63.8514H111.045V82.4891H102.755C90.321 82.4891 73.0512 92.1531 73.0512 107.685C73.0512 128.911 92.5661 132.017 104.31 132.017C116.571 132.017 126.069 128.048 132.805 120.11C140.403 111.136 143.685 97.6754 141.958 83.0069H129.005V63.8514ZM21.7599 4.83198H0V145.823H21.7599V4.83198ZM218.808 24.16V75.5863H253.002C261.119 75.5863 267.509 74.0331 271.999 71.0994C276.489 68.1657 278.734 62.9885 278.734 55.7405V44.3508C278.734 37.1028 276.489 31.9257 271.999 28.8194C267.509 25.7131 261.119 24.16 253.002 24.16H218.808ZM197.048 4.83198H256.284C270.618 4.83198 281.843 8.80112 289.96 16.5668C298.076 24.5051 302.221 35.5497 302.221 49.7005C302.221 63.8514 298.077 74.896 289.787 82.8343C281.497 90.9451 270.272 94.9143 256.111 94.9143H218.808V145.823H197.048V4.83198Z" fill="#241F21"/>
</g>
<path d="M0 197H296.119" stroke="#1D1D1B" stroke-width="3"/>
<defs>
<clipPath id="clip0_5_2438">
<rect width="587" height="151" fill="white"/>
</clipPath>
</defs>
</svg>
