<?xml version="1.0" standalone="no"?>
<!DOCTYPE svg PUBLIC "-//W3C//DTD SVG 20010904//EN"
 "http://www.w3.org/TR/2001/REC-SVG-20010904/DTD/svg10.dtd">
<svg version="1.0" xmlns="http://www.w3.org/2000/svg"
 width="700.000000pt" height="700.000000pt" viewBox="0 0 700.000000 700.000000"
 preserveAspectRatio="xMidYMid meet">
<metadata>
Created by potrace 1.14, written by Peter Selinger 2001-2017
</metadata>
<g transform="translate(0.000000,700.000000) scale(0.100000,-0.100000)"
fill="#000000" stroke="none">
<path d="M3278 6995 c-1 -1 -41 -6 -88 -9 -47 -4 -94 -9 -105 -11 -11 -2 -42
-7 -70 -10 -27 -3 -72 -10 -100 -15 -27 -5 -61 -12 -75 -14 -83 -14 -199 -42
-300 -71 -131 -38 -370 -122 -385 -136 -5 -5 -14 -9 -21 -9 -21 0 -263 -120
-389 -193 -103 -60 -265 -165 -315 -204 -8 -6 -51 -40 -95 -74 -531 -413 -945
-1004 -1160 -1654 -32 -100 -79 -266 -90 -326 -3 -13 -12 -58 -20 -99 -8 -41
-17 -89 -19 -105 -3 -17 -7 -45 -11 -64 -3 -18 -8 -54 -10 -80 -3 -25 -7 -59
-10 -76 -10 -51 -13 -546 -5 -625 27 -245 29 -262 51 -373 245 -1248 1118
-2253 2309 -2659 189 -64 478 -134 635 -153 28 -4 61 -8 75 -11 155 -26 679
-25 842 1 13 2 46 7 73 10 71 10 87 13 115 18 14 3 43 8 65 12 22 4 85 18 140
32 55 13 107 26 115 28 49 11 291 94 384 132 496 201 949 520 1296 912 36 41
70 79 77 86 7 7 55 69 107 139 255 339 447 722 566 1131 18 61 34 117 35 125
80 361 99 525 100 840 0 183 -11 415 -20 430 -2 3 -6 32 -10 64 -3 33 -8 62
-9 65 -2 3 -7 29 -10 56 -11 79 -43 221 -77 335 -17 58 -34 119 -38 135 -5 17
-25 75 -46 130 -162 433 -372 781 -685 1139 -60 68 -242 245 -320 310 -47 39
-87 74 -90 77 -13 16 -231 171 -299 214 -224 139 -415 237 -626 318 -84 33
-302 105 -335 112 -8 2 -42 10 -75 19 -71 18 -196 45 -245 52 -19 3 -60 9 -91
15 -31 5 -81 12 -110 15 -30 3 -67 8 -84 10 -34 6 -542 14 -547 9z m-234
-2060 c142 -30 315 -105 405 -175 l32 -25 -80 -103 c-94 -123 -109 -143 -120
-161 -7 -10 -20 -6 -62 21 -91 57 -159 86 -261 112 -77 19 -294 15 -363 -8
-121 -39 -216 -126 -252 -231 -9 -27 -18 -87 -19 -133 -4 -137 34 -232 131
-320 78 -72 143 -94 293 -100 l122 -4 0 -167 0 -166 -112 -2 c-213 -4 -382
-81 -489 -223 -64 -85 -83 -146 -80 -250 7 -226 148 -362 418 -406 62 -10 224
-11 273 -2 25 5 55 10 66 12 43 8 141 53 196 90 141 93 250 277 288 485 11 59
14 207 6 246 -3 11 -5 25 -5 31 -1 6 -39 10 -108 9 -60 -1 -112 2 -118 6 -8 6
-13 281 -6 332 1 9 891 9 892 0 1 -5 3 -83 5 -175 l3 -168 -164 0 c-120 0
-164 -3 -167 -12 -3 -7 -1 -30 3 -52 8 -43 4 -221 -5 -276 -82 -467 -383 -785
-817 -865 -129 -23 -334 -15 -463 19 -244 65 -446 205 -553 384 -160 267 -123
612 87 833 53 56 137 117 191 140 27 12 49 25 49 29 0 4 -19 20 -41 35 -85 56
-173 164 -207 255 -74 196 -56 445 44 619 121 210 329 342 599 380 84 12 304
4 389 -14z m-1782 -78 c2 -7 4 -577 4 -1267 l-1 -1255 -198 -3 -197 -2 0 1269
0 1269 194 0 c140 0 196 -3 198 -11z m4428 -2 c116 -21 281 -88 328 -132 7 -7
17 -13 21 -13 20 0 122 -116 164 -186 48 -81 102 -218 112 -284 3 -20 8 -47
11 -60 7 -34 6 -205 -1 -255 -23 -151 -94 -312 -189 -431 -90 -112 -297 -217
-471 -240 -33 -4 -235 -8 -450 -8 l-390 -1 -2 -425 c-1 -234 -2 -439 -2 -456
l-1 -31 -195 0 -195 0 0 1267 0 1268 593 0 c451 0 610 -3 667 -13z"/>
<path d="M4823 4060 c0 -331 3 -460 11 -460 6 -1 169 -1 362 -1 278 0 364 3
416 15 141 33 222 88 269 183 23 46 24 57 24 258 0 199 -1 213 -24 262 -28 63
-90 123 -157 153 -100 44 -157 50 -540 50 l-362 0 1 -460z"/>
</g>
</svg>
