<?xml version="1.0" standalone="no"?>
<!DOCTYPE svg PUBLIC "-//W3C//DTD SVG 20010904//EN"
 "http://www.w3.org/TR/2001/REC-SVG-20010904/DTD/svg10.dtd">
<svg version="1.0" xmlns="http://www.w3.org/2000/svg"
 width="700.000000pt" height="700.000000pt" viewBox="0 0 700.000000 700.000000"
 preserveAspectRatio="xMidYMid meet">
<metadata>
Created by potrace 1.14, written by Peter Selinger 2001-2017
</metadata>
<g transform="translate(0.000000,700.000000) scale(0.100000,-0.100000)"
fill="#000000" stroke="none">
<path d="M3278 6995 c-1 -1 -42 -5 -89 -9 -47 -4 -95 -8 -106 -10 -11 -3 -44
-7 -74 -11 -323 -41 -740 -171 -1062 -332 -213 -106 -468 -269 -632 -404 -293
-242 -524 -493 -732 -799 -96 -142 -228 -387 -308 -575 -74 -175 -173 -485
-198 -625 -3 -14 -10 -54 -17 -90 -6 -36 -13 -76 -16 -90 -3 -14 -7 -45 -10
-70 -3 -25 -7 -56 -9 -70 -26 -149 -26 -680 -1 -817 2 -10 7 -45 10 -78 4 -33
9 -67 11 -75 3 -8 7 -31 9 -50 14 -107 111 -475 146 -555 5 -11 30 -74 56
-140 107 -275 273 -563 473 -825 63 -82 74 -96 156 -189 105 -122 342 -343
485 -454 334 -259 756 -472 1171 -591 126 -37 369 -89 469 -102 30 -4 66 -8
80 -10 148 -20 547 -26 715 -11 230 21 443 61 651 123 66 19 126 36 134 38 8
3 52 18 97 35 615 228 1102 578 1548 1112 46 55 217 298 235 334 3 6 31 54 64
109 241 405 408 934 454 1436 20 221 0 734 -33 850 -2 8 -7 35 -10 60 -39 280
-173 674 -334 985 -276 532 -649 952 -1162 1308 -53 37 -99 67 -102 67 -3 0
-25 13 -49 29 -67 45 -301 165 -428 219 -234 100 -544 194 -747 226 -33 5
-116 19 -123 21 -3 1 -41 5 -85 10 -44 4 -89 10 -100 12 -25 4 -532 13 -537 8z
m-308 -2060 c182 -15 345 -81 456 -183 17 -16 41 -28 53 -27 25 2 33 14 -103
-148 -112 -135 -115 -136 -193 -67 -52 45 -146 92 -223 111 -78 19 -269 16
-350 -6 -135 -35 -227 -112 -267 -224 -18 -48 -21 -78 -19 -163 2 -93 5 -110
34 -170 40 -82 110 -148 190 -178 67 -25 93 -29 235 -29 l107 -1 0 -175 0
-175 -92 0 c-64 0 -112 -6 -153 -19 -95 -31 -135 -47 -147 -59 -7 -7 -16 -12
-21 -12 -16 0 -123 -79 -169 -125 -74 -75 -109 -151 -115 -249 -9 -136 29
-242 114 -325 39 -37 159 -97 213 -106 114 -20 145 -23 245 -20 133 4 158 8
256 46 149 57 250 141 324 268 87 147 125 293 120 452 -2 50 -6 94 -10 97 -4
4 -64 7 -133 7 l-127 0 0 175 0 175 438 1 437 1 0 -174 c0 -131 -3 -173 -12
-174 -7 -1 -76 -2 -153 -3 l-140 -1 3 -35 c8 -137 1 -279 -20 -355 -5 -22 -11
-47 -13 -55 -8 -39 -49 -149 -77 -204 -77 -153 -207 -297 -338 -374 -71 -42
-221 -108 -264 -116 -12 -2 -39 -9 -61 -14 -124 -33 -320 -34 -456 -3 -326 74
-590 295 -668 558 -28 93 -31 115 -32 208 0 96 12 159 45 248 57 151 176 285
334 374 l53 30 -60 22 c-169 62 -251 233 -238 500 18 380 302 656 717 698 30
3 56 6 57 7 4 3 151 -2 223 -9z m-1700 -1347 l0 -1268 -37 0 c-190 -2 -344 -1
-350 3 -6 4 -10 2530 -4 2533 0 0 89 0 196 0 l195 -1 0 -1267z m4365 1257
c290 -53 474 -181 574 -397 59 -126 82 -230 87 -388 5 -167 -18 -294 -75 -416
-50 -106 -123 -217 -161 -244 -90 -64 -315 -142 -450 -156 -36 -4 -230 -7
-431 -7 l-367 -1 0 -454 c0 -249 -2 -456 -5 -458 -4 -4 -285 -8 -364 -5 l-23
1 0 1268 0 1268 588 -2 c323 0 605 -5 627 -9z"/>
<path d="M4821 4501 c-5 -4 -9 -192 -9 -458 l0 -453 21 -1 c12 0 162 0 334 0
371 0 450 10 588 78 128 64 153 130 150 399 -2 181 -9 223 -54 286 -37 53
-167 118 -286 144 -38 8 -731 13 -744 5z"/>
</g>
</svg>
